<svg width="343" height="392" viewBox="0 0 343 392" fill="none" xmlns="http://www.w3.org/2000/svg">
<path d="M171.25 12.5L330 104.167V287.5L171.25 379.167L12.5 287.5V104.167L171.25 12.5Z" stroke="url(#paint0_linear_117_103)" stroke-width="25" stroke-linejoin="round"/>
<path d="M90.2499 277.335L90.912 282.292C89.3681 282.498 87.8162 281.973 86.7147 280.872C85.6132 279.77 85.0875 278.217 85.2938 276.673L90.2499 277.335ZM119.34 226.405C124.869 226.576 130.148 228.72 134.227 232.438L134.619 232.802L134.68 232.861C143.253 241.326 143.211 255.038 135.744 263.884L135.745 263.885C132.481 267.771 127.864 270.747 123.171 273.04C118.421 275.36 113.24 277.147 108.52 278.498C103.785 279.852 99.4066 280.796 96.2167 281.402C94.6183 281.705 93.3092 281.925 92.3925 282.071C91.934 282.143 91.5729 282.197 91.3221 282.234C91.1969 282.252 91.0989 282.266 91.0302 282.276C90.996 282.281 90.9687 282.284 90.9491 282.287C90.9393 282.288 90.9307 282.29 90.9247 282.291C90.9218 282.291 90.9189 282.291 90.9169 282.292H90.9149C90.9138 282.291 90.9065 282.247 90.2499 277.335C85.4049 276.688 85.2961 276.673 85.2938 276.671C85.2939 276.671 85.2946 276.669 85.2948 276.668L85.2987 276.637C85.3014 276.618 85.3057 276.59 85.3104 276.556C85.32 276.488 85.3333 276.389 85.3514 276.264C85.3879 276.013 85.4419 275.651 85.5145 275.193C85.6598 274.276 85.881 272.968 86.1844 271.37C86.7901 268.18 87.7341 263.801 89.0887 259.065C90.4388 254.345 92.2255 249.165 94.5458 244.415C96.8381 239.722 99.8157 235.104 103.701 231.84C108.066 228.164 113.635 226.228 119.34 226.405ZM119.03 236.4C115.787 236.3 112.62 237.401 110.139 239.493L110.133 239.498C107.768 241.484 105.537 244.7 103.532 248.804C101.556 252.851 99.957 257.431 98.703 261.815C97.7225 265.243 96.9708 268.488 96.4188 271.167C99.0977 270.614 102.342 269.863 105.77 268.882C110.154 267.628 114.736 266.031 118.782 264.054C122.886 262.05 126.102 259.818 128.088 257.454L128.098 257.442C132.446 252.297 132.243 244.537 127.679 240.002C125.335 237.783 122.258 236.5 119.03 236.4ZM252.781 109.835C255.53 109.853 257.75 112.086 257.75 114.835C257.75 137.952 251.209 178.367 208.532 208.588C208.64 209.002 208.754 209.446 208.87 209.917C209.604 212.896 210.491 217.032 211.084 221.634C211.674 226.217 211.993 231.397 211.525 236.426C211.062 241.412 209.793 246.618 206.91 250.943L206.906 250.95C201.895 258.441 192.159 263.049 184.758 265.734C180.89 267.137 177.305 268.136 174.692 268.784C173.382 269.109 172.307 269.348 171.55 269.507C171.171 269.587 170.871 269.648 170.661 269.689C170.557 269.709 170.474 269.725 170.415 269.736C170.386 269.741 170.361 269.746 170.344 269.75C170.335 269.751 170.328 269.752 170.322 269.753C170.32 269.754 170.317 269.754 170.315 269.754L170.312 269.755C170.311 269.756 170.31 269.755 169.417 264.835L170.309 269.755C168.851 270.02 167.351 269.624 166.213 268.674C165.075 267.724 164.417 266.318 164.417 264.835V225.24L142.347 203.169H102.75C101.268 203.169 99.8619 202.511 98.912 201.374C97.9621 200.236 97.5652 198.734 97.83 197.276L102.75 198.169C98.0178 197.31 97.8376 197.276 97.8309 197.274V197.271C97.8313 197.269 97.8324 197.266 97.8329 197.263C97.8339 197.258 97.8352 197.25 97.8368 197.242C97.84 197.224 97.844 197.201 97.8495 197.171C97.8606 197.112 97.8768 197.029 97.8973 196.924C97.9383 196.714 97.9982 196.415 98.078 196.037C98.2376 195.28 98.4767 194.204 98.8016 192.894C99.4498 190.281 100.448 186.696 101.851 182.829C104.536 175.427 109.145 165.692 116.637 160.68L116.643 160.675C120.985 157.781 126.208 156.543 131.202 156.122C136.239 155.697 141.425 156.073 146.01 156.718C150.614 157.367 154.751 158.307 157.73 159.083C158.151 159.192 158.549 159.299 158.923 159.401C168.899 144.594 182.273 132.361 197.949 123.739C214.741 114.503 233.617 109.717 252.781 109.835ZM199.617 214.252C191.531 218.971 183.108 223.09 174.417 226.579V258.521C176.447 257.967 178.84 257.243 181.348 256.333C188.588 253.707 195.515 249.985 198.59 245.396C200.206 242.971 201.188 239.593 201.568 235.5C201.945 231.452 201.7 227.059 201.166 222.913C200.751 219.694 200.17 216.705 199.617 214.252ZM247.635 119.931C231.935 120.614 216.578 124.905 202.768 132.5C187.471 140.914 174.581 153.102 165.323 167.904C165.322 167.906 165.32 167.908 165.319 167.91C165.303 167.936 165.286 167.961 165.269 167.987C159.395 177.167 154.378 186.865 150.276 196.958L170.638 217.319C180.862 213.219 190.696 208.2 200.014 202.316C238.505 176.483 246.638 142.095 247.635 119.931ZM144.615 166.621C140.471 166.037 136.084 165.746 132.043 166.086C127.963 166.431 124.604 167.388 122.196 168.991C117.604 172.063 113.88 178.995 111.252 186.239C110.342 188.747 109.619 191.139 109.064 193.169H141.023C144.514 184.585 148.631 176.27 153.344 168.294C150.879 167.703 147.863 167.078 144.615 166.621Z" fill="url(#paint1_linear_117_103)"/>
<defs>
<linearGradient id="paint0_linear_117_103" x1="-78.75" y1="-54.1667" x2="421.25" y2="445.833" gradientUnits="userSpaceOnUse">
<stop stop-color="#D4D4D4"/>
<stop offset="0.5" stop-color="#BCF0FF"/>
<stop offset="1" stop-color="#00C8FF"/>
</linearGradient>
<linearGradient id="paint1_linear_117_103" x1="25.25" y1="111.833" x2="318.25" y2="279.333" gradientUnits="userSpaceOnUse">
<stop stop-color="#D4D4D4"/>
<stop offset="0.495192" stop-color="#BCF0FF"/>
<stop offset="1" stop-color="#00C8FF"/>
</linearGradient>
</defs>
</svg>
