<svg width="1634" height="393" viewBox="0 0 1634 393" fill="none" xmlns="http://www.w3.org/2000/svg">
<path d="M171.25 12.5L330 104.167V287.5L171.25 379.167L12.5 287.5V104.167L171.25 12.5Z" stroke="url(#paint0_linear_118_109)" stroke-width="25" stroke-linejoin="round"/>
<path d="M90.25 277.336L90.9121 282.292C89.3682 282.498 87.8163 281.973 86.7148 280.872C85.6133 279.77 85.0876 278.218 85.2939 276.674L90.25 277.336ZM119.34 226.405C124.869 226.576 130.148 228.72 134.228 232.438L134.619 232.802L134.68 232.861C143.253 241.326 143.211 255.038 135.744 263.884L135.745 263.885C132.481 267.771 127.864 270.747 123.171 273.04C118.421 275.36 113.24 277.148 108.521 278.498C103.785 279.852 99.4067 280.796 96.2168 281.402C94.6184 281.706 93.3093 281.926 92.3926 282.071C91.9342 282.144 91.573 282.198 91.3223 282.234C91.197 282.252 91.099 282.267 91.0303 282.276C90.9961 282.281 90.9688 282.284 90.9492 282.287C90.9394 282.288 90.9308 282.29 90.9248 282.291C90.9219 282.291 90.919 282.291 90.917 282.292H90.915C90.9139 282.291 90.9066 282.247 90.25 277.336C85.405 276.688 85.2962 276.673 85.2939 276.672C85.294 276.671 85.2947 276.67 85.2949 276.669L85.2988 276.637C85.3015 276.618 85.3058 276.59 85.3105 276.556C85.3201 276.488 85.3334 276.389 85.3516 276.264C85.388 276.014 85.442 275.652 85.5146 275.193C85.66 274.276 85.8811 272.968 86.1846 271.37C86.7903 268.18 87.7342 263.801 89.0889 259.065C90.439 254.345 92.2257 249.165 94.5459 244.415C96.8382 239.722 99.8158 235.104 103.701 231.841C108.067 228.164 113.635 226.229 119.34 226.405ZM119.03 236.4C115.787 236.3 112.62 237.402 110.139 239.493L110.133 239.498C107.768 241.484 105.537 244.701 103.532 248.804C101.556 252.851 99.9571 257.431 98.7031 261.815C97.7226 265.243 96.971 268.488 96.4189 271.167C99.0978 270.615 102.342 269.863 105.771 268.883C110.155 267.629 114.736 266.031 118.782 264.054C122.886 262.05 126.102 259.818 128.088 257.454L128.098 257.442C132.446 252.297 132.243 244.537 127.679 240.003C125.335 237.783 122.258 236.5 119.03 236.4ZM252.781 109.836C255.53 109.853 257.75 112.087 257.75 114.836C257.75 137.952 251.209 178.368 208.532 208.589C208.64 209.002 208.754 209.446 208.87 209.918C209.605 212.896 210.491 217.032 211.084 221.634C211.675 226.217 211.993 231.398 211.525 236.426C211.062 241.412 209.793 246.618 206.91 250.943L206.906 250.95C201.895 258.441 192.159 263.049 184.758 265.734C180.89 267.137 177.305 268.136 174.692 268.784C173.382 269.109 172.307 269.348 171.55 269.508C171.171 269.587 170.871 269.648 170.661 269.689C170.557 269.71 170.474 269.725 170.415 269.736C170.386 269.742 170.361 269.746 170.344 269.75C170.335 269.751 170.328 269.753 170.322 269.754C170.32 269.754 170.317 269.754 170.315 269.755L170.312 269.756C170.311 269.756 170.31 269.755 169.417 264.836L170.31 269.756C168.851 270.02 167.351 269.624 166.213 268.675C165.075 267.725 164.417 266.318 164.417 264.836V225.24L142.347 203.17H102.75C101.268 203.17 99.8621 202.511 98.9121 201.374C97.9622 200.236 97.5653 198.735 97.8301 197.276L102.75 198.17C98.0179 197.311 97.8377 197.276 97.8311 197.274V197.271C97.8315 197.269 97.8325 197.266 97.833 197.263C97.834 197.258 97.8353 197.25 97.8369 197.242C97.8401 197.224 97.8441 197.201 97.8496 197.172C97.8607 197.113 97.877 197.029 97.8975 196.925C97.9385 196.715 97.9983 196.415 98.0781 196.037C98.2377 195.28 98.4768 194.204 98.8018 192.894C99.4499 190.281 100.449 186.697 101.852 182.829C104.536 175.427 109.146 165.692 116.637 160.68L116.644 160.676C120.985 157.781 126.208 156.543 131.202 156.122C136.239 155.697 141.425 156.073 146.01 156.718C150.614 157.367 154.751 158.307 157.73 159.083C158.151 159.192 158.549 159.299 158.923 159.401C168.899 144.594 182.273 132.361 197.949 123.739C214.741 114.503 233.617 109.717 252.781 109.836ZM199.617 214.253C191.531 218.971 183.108 223.09 174.417 226.579V258.521C176.448 257.967 178.84 257.243 181.348 256.334C188.588 253.707 195.516 249.985 198.59 245.396C200.206 242.971 201.188 239.593 201.568 235.501C201.945 231.452 201.7 227.059 201.166 222.913C200.751 219.694 200.17 216.705 199.617 214.253ZM247.635 119.931C231.935 120.615 216.578 124.906 202.769 132.501C187.471 140.914 174.581 153.102 165.323 167.904C165.322 167.906 165.321 167.908 165.319 167.91C165.303 167.936 165.286 167.961 165.27 167.987C159.395 177.167 154.378 186.865 150.276 196.958L170.638 217.319C180.862 213.219 190.696 208.2 200.014 202.316C238.505 176.483 246.638 142.095 247.635 119.931ZM144.615 166.621C140.471 166.037 136.084 165.746 132.043 166.087C127.963 166.431 124.604 167.388 122.196 168.991C117.604 172.063 113.88 178.995 111.252 186.239C110.342 188.747 109.619 191.139 109.064 193.17H141.023C144.514 184.585 148.631 176.27 153.344 168.295C150.879 167.704 147.864 167.078 144.615 166.621Z" fill="url(#paint1_linear_118_109)"/>
<path d="M473.922 284.833C460.781 284.833 450.711 281.591 443.714 275.105C436.717 268.62 433.218 258.124 433.218 243.617V181.153H414.53V151.713H433.218V124.833L467.778 121.249V151.713H495.938V181.153H467.778V241.825C467.778 250.017 471.362 254.113 478.53 254.113H492.866V284.833H473.922ZM569.782 288.161C556.129 288.161 543.926 285.004 533.174 278.689C522.422 272.375 513.974 264.012 507.83 253.601C501.857 243.02 498.87 231.329 498.87 218.529C498.87 205.729 501.857 194.039 507.83 183.457C513.974 172.876 522.422 164.428 533.174 158.113C543.926 151.799 556.129 148.641 569.782 148.641C583.606 148.641 595.809 151.799 606.39 158.113C617.142 164.428 625.505 172.876 631.478 183.457C637.622 194.039 640.694 205.729 640.694 218.529C640.694 231.329 637.622 243.02 631.478 253.601C625.505 264.012 617.142 272.375 606.39 278.689C595.809 285.004 583.606 288.161 569.782 288.161ZM569.782 256.673C577.121 256.673 583.521 254.967 588.982 251.553C594.443 247.969 598.625 243.276 601.526 237.473C604.598 231.671 606.134 225.356 606.134 218.529C606.134 211.532 604.598 205.132 601.526 199.329C598.625 193.527 594.443 188.919 588.982 185.505C583.521 181.921 577.121 180.129 569.782 180.129C562.443 180.129 556.043 181.921 550.582 185.505C545.121 188.919 540.854 193.527 537.782 199.329C534.881 205.132 533.43 211.532 533.43 218.529C533.43 225.356 534.881 231.671 537.782 237.473C540.854 243.276 545.121 247.969 550.582 251.553C556.043 254.967 562.443 256.673 569.782 256.673ZM720.532 288.161C706.879 288.161 694.676 285.004 683.924 278.689C673.172 272.375 664.724 264.012 658.58 253.601C652.607 243.02 649.62 231.329 649.62 218.529C649.62 205.729 652.607 194.039 658.58 183.457C664.724 172.876 673.172 164.428 683.924 158.113C694.676 151.799 706.879 148.641 720.532 148.641C734.356 148.641 746.559 151.799 757.14 158.113C767.892 164.428 776.255 172.876 782.228 183.457C788.372 194.039 791.444 205.729 791.444 218.529C791.444 231.329 788.372 243.02 782.228 253.601C776.255 264.012 767.892 272.375 757.14 278.689C746.559 285.004 734.356 288.161 720.532 288.161ZM720.532 256.673C727.871 256.673 734.271 254.967 739.732 251.553C745.193 247.969 749.375 243.276 752.276 237.473C755.348 231.671 756.884 225.356 756.884 218.529C756.884 211.532 755.348 205.132 752.276 199.329C749.375 193.527 745.193 188.919 739.732 185.505C734.271 181.921 727.871 180.129 720.532 180.129C713.193 180.129 706.793 181.921 701.332 185.505C695.871 188.919 691.604 193.527 688.532 199.329C685.631 205.132 684.18 211.532 684.18 218.529C684.18 225.356 685.631 231.671 688.532 237.473C691.604 243.276 695.871 247.969 701.332 251.553C706.793 254.967 713.193 256.673 720.532 256.673ZM806.74 284.833V151.713H840.788V171.169C847.785 156.151 861.353 148.641 881.492 148.641C891.049 148.641 899.668 150.86 907.348 155.297C915.028 159.735 921.087 166.049 925.524 174.241C929.961 182.433 932.18 192.161 932.18 203.425V284.833H897.62V211.873C897.62 200.268 894.975 191.905 889.684 186.785C884.393 181.495 877.481 178.849 868.948 178.849C861.609 178.849 855.124 181.495 849.492 186.785C844.031 191.905 841.3 200.268 841.3 211.873V284.833H806.74ZM997.058 288.161C974.701 288.161 956.269 280.396 941.762 264.865L965.058 243.617C974.786 254.54 985.197 260.001 996.29 260.001C1002.26 260.001 1006.79 258.721 1009.86 256.161C1013.1 253.431 1014.72 250.103 1014.72 246.177C1014.72 243.788 1014.12 241.74 1012.93 240.033C1011.91 238.327 1009.6 236.705 1006.02 235.169C1002.6 233.633 997.399 232.097 990.402 230.561C978.455 227.66 969.581 224.076 963.778 219.809C957.975 215.543 954.135 210.764 952.258 205.473C950.381 200.183 949.442 194.721 949.442 189.089C949.442 177.484 953.794 167.841 962.498 160.161C971.373 152.311 983.575 148.385 999.106 148.385C1009.86 148.385 1019.07 150.007 1026.75 153.249C1034.43 156.492 1041.69 162.551 1048.51 171.425L1023.43 190.625C1020.18 185.505 1016.51 181.836 1012.42 179.617C1008.49 177.399 1004.31 176.289 999.874 176.289C995.095 176.289 991.085 177.228 987.842 179.105C984.77 180.983 983.234 183.969 983.234 188.065C983.234 190.284 984.258 192.503 986.306 194.721C988.354 196.769 993.303 198.817 1001.15 200.865C1014.12 204.108 1024.02 207.948 1030.85 212.385C1037.68 216.652 1042.37 221.516 1044.93 226.977C1047.49 232.439 1048.77 238.497 1048.77 245.153C1048.77 253.345 1046.47 260.684 1041.86 267.169C1037.42 273.655 1031.28 278.775 1023.43 282.529C1015.75 286.284 1006.96 288.161 997.058 288.161ZM1125.73 288.161C1116.17 288.161 1107.21 286.369 1098.85 282.785C1090.66 279.201 1083.4 274.252 1077.09 267.937C1070.77 261.452 1065.82 254.028 1062.24 245.665C1058.83 237.132 1057.12 228.001 1057.12 218.273C1057.12 205.303 1060.11 193.612 1066.08 183.201C1072.22 172.62 1080.59 164.172 1091.17 157.857C1101.92 151.543 1114.04 148.385 1127.52 148.385C1139.64 148.215 1150.47 150.348 1160.03 154.785C1169.59 159.223 1177.18 165.367 1182.82 173.217L1156.19 194.977C1153.12 190.369 1149.11 186.7 1144.16 183.969C1139.38 181.239 1134.01 179.873 1128.03 179.873C1120.69 179.873 1114.29 181.665 1108.83 185.249C1103.37 188.663 1099.1 193.271 1096.03 199.073C1093.13 204.876 1091.68 211.276 1091.68 218.273C1091.68 225.1 1093.22 231.5 1096.29 237.473C1099.53 243.276 1103.88 247.969 1109.34 251.553C1114.98 254.967 1121.46 256.673 1128.8 256.673C1135.46 256.673 1141.09 255.223 1145.7 252.321C1150.3 249.249 1154.31 245.409 1157.73 240.801L1182.82 262.561C1176.5 270.583 1168.65 276.897 1159.26 281.505C1150.05 285.943 1138.87 288.161 1125.73 288.161ZM1253.78 288.161C1240.13 288.161 1227.93 285.004 1217.17 278.689C1206.42 272.375 1197.97 264.012 1191.83 253.601C1185.86 243.02 1182.87 231.329 1182.87 218.529C1182.87 205.729 1185.86 194.039 1191.83 183.457C1197.97 172.876 1206.42 164.428 1217.17 158.113C1227.93 151.799 1240.13 148.641 1253.78 148.641C1267.61 148.641 1279.81 151.799 1290.39 158.113C1301.14 164.428 1309.5 172.876 1315.48 183.457C1321.62 194.039 1324.69 205.729 1324.69 218.529C1324.69 231.329 1321.62 243.02 1315.48 253.601C1309.5 264.012 1301.14 272.375 1290.39 278.689C1279.81 285.004 1267.61 288.161 1253.78 288.161ZM1253.78 256.673C1261.12 256.673 1267.52 254.967 1272.98 251.553C1278.44 247.969 1282.62 243.276 1285.53 237.473C1288.6 231.671 1290.13 225.356 1290.13 218.529C1290.13 211.532 1288.6 205.132 1285.53 199.329C1282.62 193.527 1278.44 188.919 1272.98 185.505C1267.52 181.921 1261.12 180.129 1253.78 180.129C1246.44 180.129 1240.04 181.921 1234.58 185.505C1229.12 188.919 1224.85 193.527 1221.78 199.329C1218.88 205.132 1217.43 211.532 1217.43 218.529C1217.43 225.356 1218.88 231.671 1221.78 237.473C1224.85 243.276 1229.12 247.969 1234.58 251.553C1240.04 254.967 1246.44 256.673 1253.78 256.673ZM1339.99 336.033V151.713H1374.04V173.217C1377.62 165.879 1382.66 159.991 1389.14 155.553C1395.8 151.116 1404.93 148.897 1416.53 148.897C1425.75 148.897 1434.28 150.775 1442.13 154.529C1450.16 158.113 1457.15 163.148 1463.13 169.633C1469.1 175.948 1473.79 183.372 1477.21 191.905C1480.62 200.268 1482.33 209.228 1482.33 218.785C1482.33 231.585 1479.34 243.276 1473.37 253.857C1467.56 264.268 1459.71 272.631 1449.81 278.945C1439.92 285.089 1428.82 288.161 1416.53 288.161C1405.1 288.161 1396.14 286.113 1389.65 282.017C1383.17 277.751 1378.13 272.119 1374.55 265.121V336.033H1339.99ZM1410.9 256.929C1418.24 256.929 1424.64 255.137 1430.1 251.553C1435.73 247.969 1440.09 243.276 1443.16 237.473C1446.23 231.5 1447.77 225.185 1447.77 218.529C1447.77 211.532 1446.23 205.132 1443.16 199.329C1440.09 193.527 1435.73 188.919 1430.1 185.505C1424.64 181.921 1418.24 180.129 1410.9 180.129C1403.39 180.129 1396.82 181.921 1391.19 185.505C1385.56 189.089 1381.21 193.783 1378.13 199.585C1375.06 205.388 1373.53 211.788 1373.53 218.785C1373.53 225.612 1375.06 231.927 1378.13 237.729C1381.21 243.532 1385.56 248.225 1391.19 251.809C1396.82 255.223 1403.39 256.929 1410.9 256.929ZM1560.23 288.161C1546.58 288.161 1534.55 285.004 1524.14 278.689C1513.73 272.375 1505.62 264.012 1499.82 253.601C1494.19 243.02 1491.37 231.329 1491.37 218.529C1491.37 205.729 1494.36 194.039 1500.33 183.457C1506.3 172.705 1514.41 164.172 1524.65 157.857C1535.06 151.543 1546.92 148.385 1560.23 148.385C1573.55 148.385 1585.24 151.543 1595.31 157.857C1605.55 164.172 1613.48 172.705 1619.11 183.457C1624.92 194.039 1627.82 205.729 1627.82 218.529C1627.82 220.407 1627.73 222.369 1627.56 224.417C1627.39 226.465 1627.14 228.599 1626.79 230.817H1527.21C1529.09 238.668 1532.84 245.068 1538.47 250.017C1544.28 254.967 1551.53 257.441 1560.23 257.441C1567.74 257.441 1574.23 255.735 1579.69 252.321C1585.32 248.908 1589.67 244.641 1592.75 239.521L1619.63 259.745C1614.34 268.108 1606.4 274.935 1595.82 280.225C1585.24 285.516 1573.38 288.161 1560.23 288.161ZM1559.72 178.081C1551.53 178.081 1544.53 180.556 1538.73 185.505C1532.93 190.455 1529.09 196.94 1527.21 204.961H1593C1591.12 197.623 1587.2 191.308 1581.23 186.017C1575.42 180.727 1568.26 178.081 1559.72 178.081Z" fill="url(#paint2_linear_118_109)"/>
<path d="M364.57 378.833V351.281H354.97V345.233H380.89V351.281H371.29V378.833H364.57ZM389.319 379.457C386.759 379.457 384.471 378.865 382.455 377.681C380.439 376.497 378.855 374.929 377.703 372.977C376.583 370.993 376.023 368.801 376.023 366.401C376.023 364.001 376.583 361.809 377.703 359.825C378.855 357.841 380.439 356.257 382.455 355.073C384.471 353.889 386.759 353.297 389.319 353.297C391.911 353.297 394.199 353.889 396.183 355.073C398.199 356.257 399.767 357.841 400.887 359.825C402.039 361.809 402.615 364.001 402.615 366.401C402.615 368.801 402.039 370.993 400.887 372.977C399.767 374.929 398.199 376.497 396.183 377.681C394.199 378.865 391.911 379.457 389.319 379.457ZM389.319 373.553C390.695 373.553 391.895 373.233 392.919 372.593C393.943 371.921 394.727 371.041 395.271 369.953C395.847 368.865 396.135 367.681 396.135 366.401C396.135 365.089 395.847 363.889 395.271 362.801C394.727 361.713 393.943 360.849 392.919 360.209C391.895 359.537 390.695 359.201 389.319 359.201C387.943 359.201 386.743 359.537 385.719 360.209C384.695 360.849 383.895 361.713 383.319 362.801C382.775 363.889 382.503 365.089 382.503 366.401C382.503 367.681 382.775 368.865 383.319 369.953C383.895 371.041 384.695 371.921 385.719 372.593C386.743 373.233 387.943 373.553 389.319 373.553ZM405.483 378.833V343.793H411.963V363.953L421.323 353.873H430.539L418.779 365.489L430.587 378.833H421.995L411.963 366.977V378.833H405.483ZM441.06 379.457C438.5 379.457 436.244 378.865 434.292 377.681C432.34 376.497 430.82 374.929 429.732 372.977C428.676 370.993 428.148 368.801 428.148 366.401C428.148 364.001 428.708 361.809 429.828 359.825C430.948 357.809 432.468 356.209 434.388 355.025C436.34 353.841 438.564 353.249 441.06 353.249C443.556 353.249 445.748 353.841 447.636 355.025C449.556 356.209 451.044 357.809 452.1 359.825C453.188 361.809 453.732 364.001 453.732 366.401C453.732 366.753 453.716 367.121 453.684 367.505C453.652 367.889 453.604 368.289 453.54 368.705H434.868C435.22 370.177 435.924 371.377 436.98 372.305C438.068 373.233 439.428 373.697 441.06 373.697C442.468 373.697 443.684 373.377 444.708 372.737C445.764 372.097 446.58 371.297 447.156 370.337L452.196 374.129C451.204 375.697 449.716 376.977 447.732 377.969C445.748 378.961 443.524 379.457 441.06 379.457ZM440.964 358.817C439.428 358.817 438.116 359.281 437.028 360.209C435.94 361.137 435.22 362.353 434.868 363.857H447.204C446.852 362.481 446.116 361.297 444.996 360.305C443.908 359.313 442.564 358.817 440.964 358.817ZM456.576 378.833V353.873H462.96V357.521C464.272 354.705 466.816 353.297 470.592 353.297C472.384 353.297 474 353.713 475.44 354.545C476.88 355.377 478.016 356.561 478.848 358.097C479.68 359.633 480.096 361.457 480.096 363.569V378.833H473.616V365.153C473.616 362.977 473.12 361.409 472.128 360.449C471.136 359.457 469.84 358.961 468.24 358.961C466.864 358.961 465.648 359.457 464.592 360.449C463.568 361.409 463.056 362.977 463.056 365.153V378.833H456.576ZM482.757 368.753V362.465H496.485V368.753H482.757ZM511.325 379.457C508.765 379.457 506.509 378.865 504.557 377.681C502.605 376.497 501.085 374.929 499.997 372.977C498.941 370.993 498.413 368.801 498.413 366.401C498.413 364.001 498.973 361.809 500.093 359.825C501.213 357.809 502.733 356.209 504.653 355.025C506.605 353.841 508.829 353.249 511.325 353.249C513.821 353.249 516.013 353.841 517.901 355.025C519.821 356.209 521.309 357.809 522.365 359.825C523.453 361.809 523.997 364.001 523.997 366.401C523.997 366.753 523.981 367.121 523.949 367.505C523.917 367.889 523.869 368.289 523.805 368.705H505.133C505.485 370.177 506.189 371.377 507.245 372.305C508.333 373.233 509.693 373.697 511.325 373.697C512.733 373.697 513.949 373.377 514.973 372.737C516.029 372.097 516.845 371.297 517.421 370.337L522.461 374.129C521.469 375.697 519.981 376.977 517.997 377.969C516.013 378.961 513.789 379.457 511.325 379.457ZM511.229 358.817C509.693 358.817 508.381 359.281 507.293 360.209C506.205 361.137 505.485 362.353 505.133 363.857H517.469C517.117 362.481 516.381 361.297 515.261 360.305C514.173 359.313 512.829 358.817 511.229 358.817ZM527.728 378.833V359.393H524.224V353.873H527.728V352.193C527.728 349.665 528.48 347.633 529.984 346.097C531.488 344.561 533.504 343.793 536.032 343.793H538.72V349.313H537.04C535.152 349.313 534.208 350.305 534.208 352.289V353.873H539.296V359.393H534.208V378.833H527.728ZM543.76 378.833V359.393H540.256V353.873H543.76V352.193C543.76 349.665 544.512 347.633 546.016 346.097C547.52 344.561 549.536 343.793 552.064 343.793H554.752V349.313H553.072C551.184 349.313 550.24 350.305 550.24 352.289V353.873H555.328V359.393H550.24V378.833H543.76ZM560.714 351.809C559.626 351.809 558.698 351.441 557.93 350.705C557.194 349.937 556.826 349.025 556.826 347.969C556.826 346.945 557.194 346.065 557.93 345.329C558.698 344.561 559.626 344.177 560.714 344.177C561.834 344.177 562.762 344.561 563.498 345.329C564.234 346.065 564.602 346.945 564.602 347.969C564.602 349.057 564.234 349.969 563.498 350.705C562.762 351.441 561.834 351.809 560.714 351.809ZM557.498 378.833V353.873H563.978V378.833H557.498ZM579.715 379.457C577.923 379.457 576.243 379.121 574.675 378.449C573.139 377.777 571.779 376.849 570.595 375.665C569.411 374.449 568.483 373.057 567.811 371.489C567.171 369.889 566.851 368.177 566.851 366.353C566.851 363.921 567.411 361.729 568.531 359.777C569.683 357.793 571.251 356.209 573.235 355.025C575.251 353.841 577.523 353.249 580.051 353.249C582.323 353.217 584.355 353.617 586.147 354.449C587.939 355.281 589.363 356.433 590.419 357.905L585.427 361.985C584.851 361.121 584.099 360.433 583.171 359.921C582.275 359.409 581.267 359.153 580.147 359.153C578.771 359.153 577.571 359.489 576.547 360.161C575.523 360.801 574.723 361.665 574.147 362.753C573.603 363.841 573.331 365.041 573.331 366.353C573.331 367.633 573.619 368.833 574.195 369.953C574.803 371.041 575.619 371.921 576.643 372.593C577.699 373.233 578.915 373.553 580.291 373.553C581.539 373.553 582.595 373.281 583.459 372.737C584.323 372.161 585.075 371.441 585.715 370.577L590.419 374.657C589.235 376.161 587.763 377.345 586.003 378.209C584.275 379.041 582.179 379.457 579.715 379.457ZM596.199 351.809C595.111 351.809 594.183 351.441 593.415 350.705C592.679 349.937 592.311 349.025 592.311 347.969C592.311 346.945 592.679 346.065 593.415 345.329C594.183 344.561 595.111 344.177 596.199 344.177C597.319 344.177 598.247 344.561 598.983 345.329C599.719 346.065 600.087 346.945 600.087 347.969C600.087 349.057 599.719 349.969 598.983 350.705C598.247 351.441 597.319 351.809 596.199 351.809ZM592.983 378.833V353.873H599.463V378.833H592.983ZM615.247 379.457C612.687 379.457 610.431 378.865 608.479 377.681C606.527 376.497 605.007 374.929 603.919 372.977C602.863 370.993 602.335 368.801 602.335 366.401C602.335 364.001 602.895 361.809 604.015 359.825C605.135 357.809 606.655 356.209 608.575 355.025C610.527 353.841 612.751 353.249 615.247 353.249C617.743 353.249 619.935 353.841 621.823 355.025C623.743 356.209 625.231 357.809 626.287 359.825C627.375 361.809 627.919 364.001 627.919 366.401C627.919 366.753 627.903 367.121 627.871 367.505C627.839 367.889 627.791 368.289 627.727 368.705H609.055C609.407 370.177 610.111 371.377 611.167 372.305C612.255 373.233 613.615 373.697 615.247 373.697C616.655 373.697 617.871 373.377 618.895 372.737C619.951 372.097 620.767 371.297 621.343 370.337L626.383 374.129C625.391 375.697 623.903 376.977 621.919 377.969C619.935 378.961 617.711 379.457 615.247 379.457ZM615.151 358.817C613.615 358.817 612.303 359.281 611.215 360.209C610.127 361.137 609.407 362.353 609.055 363.857H621.391C621.039 362.481 620.303 361.297 619.183 360.305C618.095 359.313 616.751 358.817 615.151 358.817ZM630.764 378.833V353.873H637.148V357.521C638.46 354.705 641.004 353.297 644.78 353.297C646.572 353.297 648.188 353.713 649.628 354.545C651.068 355.377 652.204 356.561 653.036 358.097C653.868 359.633 654.284 361.457 654.284 363.569V378.833H647.804V365.153C647.804 362.977 647.308 361.409 646.316 360.449C645.324 359.457 644.028 358.961 642.428 358.961C641.052 358.961 639.836 359.457 638.78 360.449C637.756 361.409 637.244 362.977 637.244 365.153V378.833H630.764ZM666.939 378.833C664.475 378.833 662.587 378.225 661.275 377.009C659.963 375.793 659.307 373.825 659.307 371.105V359.393H655.803V353.873H659.307V348.833L665.787 348.161V353.873H671.067V359.393H665.787V370.769C665.787 372.305 666.459 373.073 667.803 373.073H670.491V378.833H666.939ZM692.59 379.457C690.798 379.457 689.118 379.121 687.55 378.449C686.014 377.777 684.654 376.849 683.47 375.665C682.286 374.449 681.358 373.057 680.686 371.489C680.046 369.889 679.726 368.177 679.726 366.353C679.726 363.921 680.286 361.729 681.406 359.777C682.558 357.793 684.126 356.209 686.11 355.025C688.126 353.841 690.398 353.249 692.926 353.249C695.198 353.217 697.23 353.617 699.022 354.449C700.814 355.281 702.238 356.433 703.294 357.905L698.302 361.985C697.726 361.121 696.974 360.433 696.046 359.921C695.15 359.409 694.142 359.153 693.022 359.153C691.646 359.153 690.446 359.489 689.422 360.161C688.398 360.801 687.598 361.665 687.022 362.753C686.478 363.841 686.206 365.041 686.206 366.353C686.206 367.633 686.494 368.833 687.07 369.953C687.678 371.041 688.494 371.921 689.518 372.593C690.574 373.233 691.79 373.553 693.166 373.553C694.414 373.553 695.47 373.281 696.334 372.737C697.198 372.161 697.95 371.441 698.59 370.577L703.294 374.657C702.11 376.161 700.638 377.345 698.878 378.209C697.15 379.041 695.054 379.457 692.59 379.457ZM716.6 379.457C714.04 379.457 711.752 378.865 709.736 377.681C707.72 376.497 706.136 374.929 704.984 372.977C703.864 370.993 703.304 368.801 703.304 366.401C703.304 364.001 703.864 361.809 704.984 359.825C706.136 357.841 707.72 356.257 709.736 355.073C711.752 353.889 714.04 353.297 716.6 353.297C719.192 353.297 721.48 353.889 723.464 355.073C725.48 356.257 727.048 357.841 728.168 359.825C729.32 361.809 729.896 364.001 729.896 366.401C729.896 368.801 729.32 370.993 728.168 372.977C727.048 374.929 725.48 376.497 723.464 377.681C721.48 378.865 719.192 379.457 716.6 379.457ZM716.6 373.553C717.976 373.553 719.176 373.233 720.2 372.593C721.224 371.921 722.008 371.041 722.552 369.953C723.128 368.865 723.416 367.681 723.416 366.401C723.416 365.089 723.128 363.889 722.552 362.801C722.008 361.713 721.224 360.849 720.2 360.209C719.176 359.537 717.976 359.201 716.6 359.201C715.224 359.201 714.024 359.537 713 360.209C711.976 360.849 711.176 361.713 710.6 362.801C710.056 363.889 709.784 365.089 709.784 366.401C709.784 367.681 710.056 368.865 710.6 369.953C711.176 371.041 711.976 371.921 713 372.593C714.024 373.233 715.224 373.553 716.6 373.553ZM743.905 379.457C741.633 379.457 739.553 378.881 737.665 377.729C735.809 376.545 734.321 374.977 733.201 373.025C732.113 371.041 731.569 368.849 731.569 366.449C731.569 364.657 731.889 362.977 732.529 361.409C733.169 359.809 734.049 358.417 735.169 357.233C736.289 356.017 737.585 355.073 739.057 354.401C740.561 353.697 742.177 353.345 743.905 353.345C746.049 353.345 747.729 353.745 748.945 354.545C750.161 355.345 751.105 356.401 751.777 357.713V343.793H758.257V378.833H751.969V374.753C751.297 376.161 750.337 377.297 749.089 378.161C747.873 379.025 746.145 379.457 743.905 379.457ZM744.961 373.601C746.401 373.601 747.633 373.281 748.657 372.641C749.713 371.969 750.529 371.089 751.105 370.001C751.681 368.913 751.969 367.729 751.969 366.449C751.969 365.137 751.681 363.937 751.105 362.849C750.529 361.761 749.713 360.881 748.657 360.209C747.633 359.537 746.401 359.201 744.961 359.201C743.585 359.201 742.369 359.537 741.313 360.209C740.289 360.849 739.489 361.713 738.913 362.801C738.337 363.889 738.049 365.089 738.049 366.401C738.049 367.649 738.337 368.833 738.913 369.953C739.489 371.041 740.289 371.921 741.313 372.593C742.369 373.265 743.585 373.601 744.961 373.601ZM774.06 379.457C771.5 379.457 769.244 378.865 767.292 377.681C765.34 376.497 763.82 374.929 762.732 372.977C761.676 370.993 761.148 368.801 761.148 366.401C761.148 364.001 761.708 361.809 762.828 359.825C763.948 357.809 765.468 356.209 767.388 355.025C769.34 353.841 771.564 353.249 774.06 353.249C776.556 353.249 778.748 353.841 780.636 355.025C782.556 356.209 784.044 357.809 785.1 359.825C786.188 361.809 786.732 364.001 786.732 366.401C786.732 366.753 786.716 367.121 786.684 367.505C786.652 367.889 786.604 368.289 786.54 368.705H767.868C768.22 370.177 768.924 371.377 769.98 372.305C771.068 373.233 772.428 373.697 774.06 373.697C775.468 373.697 776.684 373.377 777.708 372.737C778.764 372.097 779.58 371.297 780.156 370.337L785.196 374.129C784.204 375.697 782.716 376.977 780.732 377.969C778.748 378.961 776.524 379.457 774.06 379.457ZM773.964 358.817C772.428 358.817 771.116 359.281 770.028 360.209C768.94 361.137 768.22 362.353 767.868 363.857H780.204C779.852 362.481 779.116 361.297 777.996 360.305C776.908 359.313 775.564 358.817 773.964 358.817ZM803.928 379.457C801.688 379.457 799.944 379.025 798.696 378.161C797.48 377.297 796.536 376.161 795.864 374.753V378.833H789.576V343.793H796.056V357.713C796.728 356.401 797.672 355.345 798.888 354.545C800.104 353.745 801.784 353.345 803.928 353.345C805.656 353.345 807.256 353.697 808.728 354.401C810.232 355.073 811.544 356.017 812.664 357.233C813.784 358.417 814.664 359.809 815.304 361.409C815.944 362.977 816.264 364.657 816.264 366.449C816.264 368.849 815.704 371.041 814.584 373.025C813.496 374.977 812.024 376.545 810.168 377.729C808.312 378.881 806.232 379.457 803.928 379.457ZM802.872 373.601C804.248 373.601 805.448 373.265 806.472 372.593C807.528 371.921 808.344 371.041 808.92 369.953C809.496 368.833 809.784 367.649 809.784 366.401C809.784 365.089 809.496 363.889 808.92 362.801C808.344 361.713 807.528 360.849 806.472 360.209C805.448 359.537 804.248 359.201 802.872 359.201C801.464 359.201 800.232 359.537 799.176 360.209C798.12 360.881 797.304 361.761 796.728 362.849C796.152 363.937 795.864 365.137 795.864 366.449C795.864 367.729 796.152 368.913 796.728 370.001C797.304 371.089 798.12 371.969 799.176 372.641C800.232 373.281 801.464 373.601 802.872 373.601ZM830.296 379.457C828.024 379.457 825.944 378.881 824.056 377.729C822.2 376.545 820.712 374.977 819.592 373.025C818.504 371.041 817.96 368.849 817.96 366.449C817.96 364.657 818.28 362.977 818.92 361.409C819.56 359.809 820.44 358.417 821.56 357.233C822.68 356.017 823.976 355.073 825.448 354.401C826.952 353.697 828.568 353.345 830.296 353.345C832.472 353.345 834.168 353.761 835.384 354.593C836.6 355.393 837.544 356.465 838.216 357.809V353.873H844.648V378.833H838.36V374.753C837.688 376.161 836.728 377.297 835.48 378.161C834.264 379.025 832.536 379.457 830.296 379.457ZM831.352 373.601C832.792 373.601 834.024 373.281 835.048 372.641C836.104 371.969 836.92 371.089 837.496 370.001C838.072 368.913 838.36 367.729 838.36 366.449C838.36 365.137 838.072 363.937 837.496 362.849C836.92 361.761 836.104 360.881 835.048 360.209C834.024 359.537 832.792 359.201 831.352 359.201C829.976 359.201 828.76 359.537 827.704 360.209C826.68 360.849 825.88 361.713 825.304 362.801C824.728 363.889 824.44 365.089 824.44 366.401C824.44 367.649 824.728 368.833 825.304 369.953C825.88 371.041 826.68 371.921 827.704 372.593C828.76 373.265 829.976 373.601 831.352 373.601ZM857.042 379.457C852.85 379.457 849.394 378.001 846.674 375.089L851.042 371.105C852.866 373.153 854.818 374.177 856.898 374.177C858.018 374.177 858.866 373.937 859.442 373.457C860.05 372.945 860.354 372.321 860.354 371.585C860.354 371.137 860.242 370.753 860.018 370.433C859.826 370.113 859.394 369.809 858.722 369.521C858.082 369.233 857.106 368.945 855.794 368.657C853.554 368.113 851.89 367.441 850.802 366.641C849.714 365.841 848.994 364.945 848.642 363.953C848.29 362.961 848.114 361.937 848.114 360.881C848.114 358.705 848.93 356.897 850.562 355.457C852.226 353.985 854.514 353.249 857.426 353.249C859.442 353.249 861.17 353.553 862.61 354.161C864.05 354.769 865.41 355.905 866.69 357.569L861.986 361.169C861.378 360.209 860.69 359.521 859.922 359.105C859.186 358.689 858.402 358.481 857.57 358.481C856.674 358.481 855.922 358.657 855.314 359.009C854.738 359.361 854.45 359.921 854.45 360.689C854.45 361.105 854.642 361.521 855.026 361.937C855.41 362.321 856.338 362.705 857.81 363.089C860.242 363.697 862.098 364.417 863.378 365.249C864.658 366.049 865.538 366.961 866.018 367.985C866.498 369.009 866.738 370.145 866.738 371.393C866.738 372.929 866.306 374.305 865.442 375.521C864.61 376.737 863.458 377.697 861.986 378.401C860.546 379.105 858.898 379.457 857.042 379.457ZM881.216 379.457C878.656 379.457 876.4 378.865 874.448 377.681C872.496 376.497 870.976 374.929 869.888 372.977C868.832 370.993 868.304 368.801 868.304 366.401C868.304 364.001 868.864 361.809 869.984 359.825C871.104 357.809 872.624 356.209 874.544 355.025C876.496 353.841 878.72 353.249 881.216 353.249C883.712 353.249 885.904 353.841 887.792 355.025C889.712 356.209 891.2 357.809 892.256 359.825C893.344 361.809 893.888 364.001 893.888 366.401C893.888 366.753 893.872 367.121 893.84 367.505C893.808 367.889 893.76 368.289 893.696 368.705H875.024C875.376 370.177 876.08 371.377 877.136 372.305C878.224 373.233 879.584 373.697 881.216 373.697C882.624 373.697 883.84 373.377 884.864 372.737C885.92 372.097 886.736 371.297 887.312 370.337L892.352 374.129C891.36 375.697 889.872 376.977 887.888 377.969C885.904 378.961 883.68 379.457 881.216 379.457ZM881.12 358.817C879.584 358.817 878.272 359.281 877.184 360.209C876.096 361.137 875.376 362.353 875.024 363.857H887.36C887.008 362.481 886.272 361.297 885.152 360.305C884.064 359.313 882.72 358.817 881.12 358.817ZM915.668 379.457C913.876 379.457 912.196 379.121 910.628 378.449C909.092 377.777 907.732 376.849 906.548 375.665C905.364 374.449 904.436 373.057 903.764 371.489C903.124 369.889 902.804 368.177 902.804 366.353C902.804 363.921 903.364 361.729 904.484 359.777C905.636 357.793 907.204 356.209 909.188 355.025C911.204 353.841 913.476 353.249 916.004 353.249C918.276 353.217 920.308 353.617 922.1 354.449C923.892 355.281 925.316 356.433 926.372 357.905L921.38 361.985C920.804 361.121 920.052 360.433 919.124 359.921C918.228 359.409 917.22 359.153 916.1 359.153C914.724 359.153 913.524 359.489 912.5 360.161C911.476 360.801 910.676 361.665 910.1 362.753C909.556 363.841 909.284 365.041 909.284 366.353C909.284 367.633 909.572 368.833 910.148 369.953C910.756 371.041 911.572 371.921 912.596 372.593C913.652 373.233 914.868 373.553 916.244 373.553C917.492 373.553 918.548 373.281 919.412 372.737C920.276 372.161 921.028 371.441 921.668 370.577L926.372 374.657C925.188 376.161 923.716 377.345 921.956 378.209C920.228 379.041 918.132 379.457 915.668 379.457ZM939.678 379.457C937.118 379.457 934.83 378.865 932.814 377.681C930.798 376.497 929.214 374.929 928.062 372.977C926.942 370.993 926.382 368.801 926.382 366.401C926.382 364.001 926.942 361.809 928.062 359.825C929.214 357.841 930.798 356.257 932.814 355.073C934.83 353.889 937.118 353.297 939.678 353.297C942.27 353.297 944.558 353.889 946.542 355.073C948.558 356.257 950.126 357.841 951.246 359.825C952.398 361.809 952.974 364.001 952.974 366.401C952.974 368.801 952.398 370.993 951.246 372.977C950.126 374.929 948.558 376.497 946.542 377.681C944.558 378.865 942.27 379.457 939.678 379.457ZM939.678 373.553C941.054 373.553 942.254 373.233 943.278 372.593C944.302 371.921 945.086 371.041 945.63 369.953C946.206 368.865 946.494 367.681 946.494 366.401C946.494 365.089 946.206 363.889 945.63 362.801C945.086 361.713 944.302 360.849 943.278 360.209C942.254 359.537 941.054 359.201 939.678 359.201C938.302 359.201 937.102 359.537 936.078 360.209C935.054 360.849 934.254 361.713 933.678 362.801C933.134 363.889 932.862 365.089 932.862 366.401C932.862 367.681 933.134 368.865 933.678 369.953C934.254 371.041 935.054 371.921 936.078 372.593C937.102 373.233 938.302 373.553 939.678 373.553ZM955.842 378.833V353.873H962.226V357.521C963.538 354.705 966.082 353.297 969.858 353.297C971.65 353.297 973.266 353.713 974.706 354.545C976.146 355.377 977.282 356.561 978.114 358.097C978.946 359.633 979.362 361.457 979.362 363.569V378.833H972.882V365.153C972.882 362.977 972.386 361.409 971.394 360.449C970.402 359.457 969.106 358.961 967.506 358.961C966.13 358.961 964.914 359.457 963.858 360.449C962.834 361.409 962.322 362.977 962.322 365.153V378.833H955.842ZM992.017 378.833C989.553 378.833 987.665 378.225 986.353 377.009C985.041 375.793 984.385 373.825 984.385 371.105V359.393H980.881V353.873H984.385V348.833L990.865 348.161V353.873H996.145V359.393H990.865V370.769C990.865 372.305 991.537 373.073 992.881 373.073H995.569V378.833H992.017ZM1009.61 379.457C1007.05 379.457 1004.79 378.865 1002.84 377.681C1000.89 376.497 999.366 374.929 998.278 372.977C997.222 370.993 996.694 368.801 996.694 366.401C996.694 364.001 997.254 361.809 998.374 359.825C999.494 357.809 1001.01 356.209 1002.93 355.025C1004.89 353.841 1007.11 353.249 1009.61 353.249C1012.1 353.249 1014.29 353.841 1016.18 355.025C1018.1 356.209 1019.59 357.809 1020.65 359.825C1021.73 361.809 1022.28 364.001 1022.28 366.401C1022.28 366.753 1022.26 367.121 1022.23 367.505C1022.2 367.889 1022.15 368.289 1022.09 368.705H1003.41C1003.77 370.177 1004.47 371.377 1005.53 372.305C1006.61 373.233 1007.97 373.697 1009.61 373.697C1011.01 373.697 1012.23 373.377 1013.25 372.737C1014.31 372.097 1015.13 371.297 1015.7 370.337L1020.74 374.129C1019.75 375.697 1018.26 376.977 1016.28 377.969C1014.29 378.961 1012.07 379.457 1009.61 379.457ZM1009.51 358.817C1007.97 358.817 1006.66 359.281 1005.57 360.209C1004.49 361.137 1003.77 362.353 1003.41 363.857H1015.75C1015.4 362.481 1014.66 361.297 1013.54 360.305C1012.45 359.313 1011.11 358.817 1009.51 358.817ZM1020.33 378.833L1029.69 366.353L1020.81 353.873H1028.54L1033.63 361.793L1038.91 353.873H1046.49L1037.61 366.449L1046.97 378.833H1039.1L1033.68 370.865L1028.06 378.833H1020.33ZM1057.88 378.833C1055.41 378.833 1053.52 378.225 1052.21 377.009C1050.9 375.793 1050.24 373.825 1050.24 371.105V359.393H1046.74V353.873H1050.24V348.833L1056.72 348.161V353.873H1062V359.393H1056.72V370.769C1056.72 372.305 1057.4 373.073 1058.74 373.073H1061.43V378.833H1057.88ZM1072.05 378.833V353.873H1078.43V357.521C1079.74 354.705 1082.29 353.297 1086.06 353.297C1087.82 353.297 1089.41 353.713 1090.81 354.545C1092.22 355.345 1093.34 356.497 1094.17 358.001C1095.01 356.497 1096.06 355.345 1097.34 354.545C1098.65 353.713 1100.41 353.297 1102.62 353.297C1104.41 353.297 1106.03 353.713 1107.47 354.545C1108.91 355.377 1110.05 356.561 1110.88 358.097C1111.71 359.633 1112.13 361.457 1112.13 363.569V378.833H1105.65V365.153C1105.65 362.977 1105.18 361.409 1104.25 360.449C1103.33 359.457 1102.13 358.961 1100.65 358.961C1099.15 358.961 1097.92 359.393 1096.96 360.257C1096.03 361.121 1095.57 362.753 1095.57 365.153V378.833H1089.09V365.153C1089.09 362.977 1088.59 361.409 1087.6 360.449C1086.61 359.457 1085.31 358.961 1083.71 358.961C1082.33 358.961 1081.12 359.457 1080.06 360.449C1079.04 361.409 1078.53 362.977 1078.53 365.153V378.833H1072.05ZM1127.11 379.457C1124.84 379.457 1122.76 378.881 1120.87 377.729C1119.01 376.545 1117.52 374.977 1116.4 373.025C1115.32 371.041 1114.77 368.849 1114.77 366.449C1114.77 364.657 1115.09 362.977 1115.73 361.409C1116.37 359.809 1117.25 358.417 1118.37 357.233C1119.49 356.017 1120.79 355.073 1122.26 354.401C1123.76 353.697 1125.38 353.345 1127.11 353.345C1129.28 353.345 1130.98 353.761 1132.2 354.593C1133.41 355.393 1134.36 356.465 1135.03 357.809V353.873H1141.46V378.833H1135.17V374.753C1134.5 376.161 1133.54 377.297 1132.29 378.161C1131.08 379.025 1129.35 379.457 1127.11 379.457ZM1128.16 373.601C1129.6 373.601 1130.84 373.281 1131.86 372.641C1132.92 371.969 1133.73 371.089 1134.31 370.001C1134.88 368.913 1135.17 367.729 1135.17 366.449C1135.17 365.137 1134.88 363.937 1134.31 362.849C1133.73 361.761 1132.92 360.881 1131.86 360.209C1130.84 359.537 1129.6 359.201 1128.16 359.201C1126.79 359.201 1125.57 359.537 1124.52 360.209C1123.49 360.849 1122.69 361.713 1122.12 362.801C1121.54 363.889 1121.25 365.089 1121.25 366.401C1121.25 367.649 1121.54 368.833 1122.12 369.953C1122.69 371.041 1123.49 371.921 1124.52 372.593C1125.57 373.265 1126.79 373.601 1128.16 373.601ZM1145.31 388.433V353.873H1151.69V357.905C1152.37 356.529 1153.31 355.425 1154.53 354.593C1155.77 353.761 1157.49 353.345 1159.66 353.345C1161.39 353.345 1162.99 353.697 1164.46 354.401C1165.97 355.073 1167.28 356.017 1168.4 357.233C1169.52 358.417 1170.4 359.809 1171.04 361.409C1171.68 362.977 1172 364.657 1172 366.449C1172 368.849 1171.44 371.041 1170.32 373.025C1169.23 374.977 1167.76 376.545 1165.9 377.729C1164.05 378.881 1161.97 379.457 1159.66 379.457C1157.52 379.457 1155.84 379.073 1154.62 378.305C1153.41 377.505 1152.46 376.449 1151.79 375.137V388.433H1145.31ZM1158.61 373.601C1159.98 373.601 1161.18 373.265 1162.21 372.593C1163.26 371.921 1164.08 371.041 1164.65 369.953C1165.23 368.833 1165.52 367.649 1165.52 366.401C1165.52 365.089 1165.23 363.889 1164.65 362.801C1164.08 361.713 1163.26 360.849 1162.21 360.209C1161.18 359.537 1159.98 359.201 1158.61 359.201C1157.2 359.201 1155.97 359.537 1154.91 360.209C1153.85 360.881 1153.04 361.761 1152.46 362.849C1151.89 363.937 1151.6 365.137 1151.6 366.449C1151.6 367.729 1151.89 368.913 1152.46 370.001C1153.04 371.089 1153.85 371.969 1154.91 372.641C1155.97 373.281 1157.2 373.601 1158.61 373.601ZM1182.92 379.457C1178.73 379.457 1175.27 378.001 1172.55 375.089L1176.92 371.105C1178.74 373.153 1180.69 374.177 1182.77 374.177C1183.89 374.177 1184.74 373.937 1185.32 373.457C1185.93 372.945 1186.23 372.321 1186.23 371.585C1186.23 371.137 1186.12 370.753 1185.89 370.433C1185.7 370.113 1185.27 369.809 1184.6 369.521C1183.96 369.233 1182.98 368.945 1181.67 368.657C1179.43 368.113 1177.77 367.441 1176.68 366.641C1175.59 365.841 1174.87 364.945 1174.52 363.953C1174.17 362.961 1173.99 361.937 1173.99 360.881C1173.99 358.705 1174.81 356.897 1176.44 355.457C1178.1 353.985 1180.39 353.249 1183.3 353.249C1185.32 353.249 1187.05 353.553 1188.49 354.161C1189.93 354.769 1191.29 355.905 1192.57 357.569L1187.86 361.169C1187.25 360.209 1186.57 359.521 1185.8 359.105C1185.06 358.689 1184.28 358.481 1183.45 358.481C1182.55 358.481 1181.8 358.657 1181.19 359.009C1180.61 359.361 1180.33 359.921 1180.33 360.689C1180.33 361.105 1180.52 361.521 1180.9 361.937C1181.29 362.321 1182.21 362.705 1183.69 363.089C1186.12 363.697 1187.97 364.417 1189.25 365.249C1190.53 366.049 1191.41 366.961 1191.89 367.985C1192.37 369.009 1192.61 370.145 1192.61 371.393C1192.61 372.929 1192.18 374.305 1191.32 375.521C1190.49 376.737 1189.33 377.697 1187.86 378.401C1186.42 379.105 1184.77 379.457 1182.92 379.457ZM1204.84 378.833V359.393H1201.33V353.873H1204.84V352.193C1204.84 349.665 1205.59 347.633 1207.09 346.097C1208.6 344.561 1210.61 343.793 1213.14 343.793H1215.83V349.313H1214.15C1212.26 349.313 1211.32 350.305 1211.32 352.289V353.873H1216.41V359.393H1211.32V378.833H1204.84ZM1229.69 379.457C1227.13 379.457 1224.85 378.865 1222.83 377.681C1220.81 376.497 1219.23 374.929 1218.08 372.977C1216.96 370.993 1216.4 368.801 1216.4 366.401C1216.4 364.001 1216.96 361.809 1218.08 359.825C1219.23 357.841 1220.81 356.257 1222.83 355.073C1224.85 353.889 1227.13 353.297 1229.69 353.297C1232.29 353.297 1234.57 353.889 1236.56 355.073C1238.57 356.257 1240.14 357.841 1241.26 359.825C1242.41 361.809 1242.99 364.001 1242.99 366.401C1242.99 368.801 1242.41 370.993 1241.26 372.977C1240.14 374.929 1238.57 376.497 1236.56 377.681C1234.57 378.865 1232.29 379.457 1229.69 379.457ZM1229.69 373.553C1231.07 373.553 1232.27 373.233 1233.29 372.593C1234.32 371.921 1235.1 371.041 1235.65 369.953C1236.22 368.865 1236.51 367.681 1236.51 366.401C1236.51 365.089 1236.22 363.889 1235.65 362.801C1235.1 361.713 1234.32 360.849 1233.29 360.209C1232.27 359.537 1231.07 359.201 1229.69 359.201C1228.32 359.201 1227.12 359.537 1226.09 360.209C1225.07 360.849 1224.27 361.713 1223.69 362.801C1223.15 363.889 1222.88 365.089 1222.88 366.401C1222.88 367.681 1223.15 368.865 1223.69 369.953C1224.27 371.041 1225.07 371.921 1226.09 372.593C1227.12 373.233 1228.32 373.553 1229.69 373.553ZM1245.86 378.833V353.873H1252.15V358.625C1252.56 356.833 1253.41 355.473 1254.69 354.545C1255.97 353.585 1257.7 353.169 1259.87 353.297V359.393H1258.96C1257.11 359.393 1255.54 359.985 1254.26 361.169C1252.98 362.353 1252.34 363.985 1252.34 366.065V378.833H1245.86ZM1267.07 378.833L1280.8 345.233H1286.61L1300.29 378.833H1292.99L1290.69 372.449H1276.67L1274.37 378.833H1267.07ZM1282.48 357.473L1278.88 366.641H1288.48L1284.88 357.473C1284.4 356.193 1284 354.913 1283.68 353.633C1283.36 355.009 1282.96 356.289 1282.48 357.473ZM1301.79 378.833V345.233H1308.51V378.833H1301.79ZM1332.2 379.457C1330.41 379.457 1328.73 379.121 1327.16 378.449C1325.62 377.777 1324.26 376.849 1323.08 375.665C1321.9 374.449 1320.97 373.057 1320.3 371.489C1319.66 369.889 1319.34 368.177 1319.34 366.353C1319.34 363.921 1319.9 361.729 1321.02 359.777C1322.17 357.793 1323.74 356.209 1325.72 355.025C1327.74 353.841 1330.01 353.249 1332.54 353.249C1334.81 353.217 1336.84 353.617 1338.63 354.449C1340.42 355.281 1341.85 356.433 1342.9 357.905L1337.91 361.985C1337.34 361.121 1336.58 360.433 1335.66 359.921C1334.76 359.409 1333.75 359.153 1332.63 359.153C1331.26 359.153 1330.06 359.489 1329.03 360.161C1328.01 360.801 1327.21 361.665 1326.63 362.753C1326.09 363.841 1325.82 365.041 1325.82 366.353C1325.82 367.633 1326.1 368.833 1326.68 369.953C1327.29 371.041 1328.1 371.921 1329.13 372.593C1330.18 373.233 1331.4 373.553 1332.78 373.553C1334.02 373.553 1335.08 373.281 1335.94 372.737C1336.81 372.161 1337.56 371.441 1338.2 370.577L1342.9 374.657C1341.72 376.161 1340.25 377.345 1338.49 378.209C1336.76 379.041 1334.66 379.457 1332.2 379.457ZM1356.21 379.457C1353.65 379.457 1351.36 378.865 1349.35 377.681C1347.33 376.497 1345.75 374.929 1344.59 372.977C1343.47 370.993 1342.91 368.801 1342.91 366.401C1342.91 364.001 1343.47 361.809 1344.59 359.825C1345.75 357.841 1347.33 356.257 1349.35 355.073C1351.36 353.889 1353.65 353.297 1356.21 353.297C1358.8 353.297 1361.09 353.889 1363.07 355.073C1365.09 356.257 1366.66 357.841 1367.78 359.825C1368.93 361.809 1369.51 364.001 1369.51 366.401C1369.51 368.801 1368.93 370.993 1367.78 372.977C1366.66 374.929 1365.09 376.497 1363.07 377.681C1361.09 378.865 1358.8 379.457 1356.21 379.457ZM1356.21 373.553C1357.59 373.553 1358.79 373.233 1359.81 372.593C1360.83 371.921 1361.62 371.041 1362.16 369.953C1362.74 368.865 1363.03 367.681 1363.03 366.401C1363.03 365.089 1362.74 363.889 1362.16 362.801C1361.62 361.713 1360.83 360.849 1359.81 360.209C1358.79 359.537 1357.59 359.201 1356.21 359.201C1354.83 359.201 1353.63 359.537 1352.61 360.209C1351.59 360.849 1350.79 361.713 1350.21 362.801C1349.67 363.889 1349.39 365.089 1349.39 366.401C1349.39 367.681 1349.67 368.865 1350.21 369.953C1350.79 371.041 1351.59 371.921 1352.61 372.593C1353.63 373.233 1354.83 373.553 1356.21 373.553ZM1383.51 379.457C1381.24 379.457 1379.16 378.881 1377.27 377.729C1375.42 376.545 1373.93 374.977 1372.81 373.025C1371.72 371.041 1371.18 368.849 1371.18 366.449C1371.18 364.657 1371.5 362.977 1372.14 361.409C1372.78 359.809 1373.66 358.417 1374.78 357.233C1375.9 356.017 1377.19 355.073 1378.67 354.401C1380.17 353.697 1381.79 353.345 1383.51 353.345C1385.66 353.345 1387.34 353.745 1388.55 354.545C1389.77 355.345 1390.71 356.401 1391.39 357.713V343.793H1397.87V378.833H1391.58V374.753C1390.91 376.161 1389.95 377.297 1388.7 378.161C1387.48 379.025 1385.75 379.457 1383.51 379.457ZM1384.57 373.601C1386.01 373.601 1387.24 373.281 1388.27 372.641C1389.32 371.969 1390.14 371.089 1390.71 370.001C1391.29 368.913 1391.58 367.729 1391.58 366.449C1391.58 365.137 1391.29 363.937 1390.71 362.849C1390.14 361.761 1389.32 360.881 1388.27 360.209C1387.24 359.537 1386.01 359.201 1384.57 359.201C1383.19 359.201 1381.98 359.537 1380.92 360.209C1379.9 360.849 1379.1 361.713 1378.52 362.801C1377.95 363.889 1377.66 365.089 1377.66 366.401C1377.66 367.649 1377.95 368.833 1378.52 369.953C1379.1 371.041 1379.9 371.921 1380.92 372.593C1381.98 373.265 1383.19 373.601 1384.57 373.601ZM1404.93 351.809C1403.84 351.809 1402.92 351.441 1402.15 350.705C1401.41 349.937 1401.04 349.025 1401.04 347.969C1401.04 346.945 1401.41 346.065 1402.15 345.329C1402.92 344.561 1403.84 344.177 1404.93 344.177C1406.05 344.177 1406.98 344.561 1407.72 345.329C1408.45 346.065 1408.82 346.945 1408.82 347.969C1408.82 349.057 1408.45 349.969 1407.72 350.705C1406.98 351.441 1406.05 351.809 1404.93 351.809ZM1401.72 378.833V353.873H1408.2V378.833H1401.72ZM1412.03 378.833V353.873H1418.41V357.521C1419.73 354.705 1422.27 353.297 1426.05 353.297C1427.84 353.297 1429.45 353.713 1430.89 354.545C1432.33 355.377 1433.47 356.561 1434.3 358.097C1435.13 359.633 1435.55 361.457 1435.55 363.569V378.833H1429.07V365.153C1429.07 362.977 1428.57 361.409 1427.58 360.449C1426.59 359.457 1425.29 358.961 1423.69 358.961C1422.32 358.961 1421.1 359.457 1420.05 360.449C1419.02 361.409 1418.51 362.977 1418.51 365.153V378.833H1412.03ZM1451.31 389.057C1448.79 389.057 1446.53 388.705 1444.55 388.001C1442.59 387.329 1440.87 386.113 1439.36 384.353L1443.39 379.601C1444.58 380.945 1445.81 381.857 1447.09 382.337C1448.37 382.817 1449.79 383.057 1451.36 383.057C1452.51 383.057 1453.59 382.769 1454.58 382.193C1455.57 381.617 1456.35 380.801 1456.93 379.745C1457.54 378.721 1457.84 377.553 1457.84 376.241V375.137C1457.17 376.289 1456.24 377.217 1455.06 377.921C1453.91 378.625 1452.32 378.977 1450.31 378.977C1448.03 378.977 1445.97 378.401 1444.11 377.249C1442.29 376.097 1440.85 374.561 1439.79 372.641C1438.74 370.689 1438.21 368.513 1438.21 366.113C1438.21 363.713 1438.74 361.537 1439.79 359.585C1440.85 357.633 1442.29 356.097 1444.11 354.977C1445.97 353.825 1448.03 353.249 1450.31 353.249C1452.39 353.249 1454 353.617 1455.15 354.353C1456.34 355.089 1457.27 356.065 1457.94 357.281V353.873H1464.32V376.625C1464.32 379.185 1463.76 381.393 1462.64 383.249C1461.55 385.105 1460.03 386.529 1458.08 387.521C1456.13 388.545 1453.87 389.057 1451.31 389.057ZM1451.36 373.073C1453.51 373.073 1455.17 372.401 1456.35 371.057C1457.54 369.713 1458.13 368.065 1458.13 366.113C1458.13 364.161 1457.54 362.513 1456.35 361.169C1455.17 359.825 1453.51 359.153 1451.36 359.153C1449.25 359.153 1447.6 359.825 1446.42 361.169C1445.27 362.513 1444.69 364.161 1444.69 366.113C1444.69 367.361 1444.95 368.513 1445.46 369.569C1446 370.625 1446.77 371.473 1447.76 372.113C1448.75 372.753 1449.95 373.073 1451.36 373.073ZM1486.97 379.457C1484.7 379.457 1482.62 378.881 1480.73 377.729C1478.87 376.545 1477.38 374.977 1476.26 373.025C1475.18 371.041 1474.63 368.849 1474.63 366.449C1474.63 364.657 1474.95 362.977 1475.59 361.409C1476.23 359.809 1477.11 358.417 1478.23 357.233C1479.35 356.017 1480.65 355.073 1482.12 354.401C1483.62 353.697 1485.24 353.345 1486.97 353.345C1489.14 353.345 1490.84 353.761 1492.06 354.593C1493.27 355.393 1494.22 356.465 1494.89 357.809V353.873H1501.32V378.833H1495.03V374.753C1494.36 376.161 1493.4 377.297 1492.15 378.161C1490.94 379.025 1489.21 379.457 1486.97 379.457ZM1488.02 373.601C1489.46 373.601 1490.7 373.281 1491.72 372.641C1492.78 371.969 1493.59 371.089 1494.17 370.001C1494.74 368.913 1495.03 367.729 1495.03 366.449C1495.03 365.137 1494.74 363.937 1494.17 362.849C1493.59 361.761 1492.78 360.881 1491.72 360.209C1490.7 359.537 1489.46 359.201 1488.02 359.201C1486.65 359.201 1485.43 359.537 1484.38 360.209C1483.35 360.849 1482.55 361.713 1481.98 362.801C1481.4 363.889 1481.11 365.089 1481.11 366.401C1481.11 367.649 1481.4 368.833 1481.98 369.953C1482.55 371.041 1483.35 371.921 1484.38 372.593C1485.43 373.265 1486.65 373.601 1488.02 373.601ZM1517.31 389.057C1514.79 389.057 1512.53 388.705 1510.55 388.001C1508.59 387.329 1506.87 386.113 1505.36 384.353L1509.39 379.601C1510.58 380.945 1511.81 381.857 1513.09 382.337C1514.37 382.817 1515.79 383.057 1517.36 383.057C1518.51 383.057 1519.59 382.769 1520.58 382.193C1521.57 381.617 1522.35 380.801 1522.93 379.745C1523.54 378.721 1523.84 377.553 1523.84 376.241V375.137C1523.17 376.289 1522.24 377.217 1521.06 377.921C1519.91 378.625 1518.32 378.977 1516.31 378.977C1514.03 378.977 1511.97 378.401 1510.11 377.249C1508.29 376.097 1506.85 374.561 1505.79 372.641C1504.74 370.689 1504.21 368.513 1504.21 366.113C1504.21 363.713 1504.74 361.537 1505.79 359.585C1506.85 357.633 1508.29 356.097 1510.11 354.977C1511.97 353.825 1514.03 353.249 1516.31 353.249C1518.39 353.249 1520 353.617 1521.15 354.353C1522.34 355.089 1523.27 356.065 1523.94 357.281V353.873H1530.32V376.625C1530.32 379.185 1529.76 381.393 1528.64 383.249C1527.55 385.105 1526.03 386.529 1524.08 387.521C1522.13 388.545 1519.87 389.057 1517.31 389.057ZM1517.36 373.073C1519.51 373.073 1521.17 372.401 1522.35 371.057C1523.54 369.713 1524.13 368.065 1524.13 366.113C1524.13 364.161 1523.54 362.513 1522.35 361.169C1521.17 359.825 1519.51 359.153 1517.36 359.153C1515.25 359.153 1513.6 359.825 1512.42 361.169C1511.27 362.513 1510.69 364.161 1510.69 366.113C1510.69 367.361 1510.95 368.513 1511.46 369.569C1512 370.625 1512.77 371.473 1513.76 372.113C1514.75 372.753 1515.95 373.073 1517.36 373.073ZM1546.09 379.457C1543.53 379.457 1541.27 378.865 1539.32 377.681C1537.37 376.497 1535.85 374.929 1534.76 372.977C1533.71 370.993 1533.18 368.801 1533.18 366.401C1533.18 364.001 1533.74 361.809 1534.86 359.825C1535.98 357.809 1537.5 356.209 1539.42 355.025C1541.37 353.841 1543.59 353.249 1546.09 353.249C1548.59 353.249 1550.78 353.841 1552.67 355.025C1554.59 356.209 1556.07 357.809 1557.13 359.825C1558.22 361.809 1558.76 364.001 1558.76 366.401C1558.76 366.753 1558.75 367.121 1558.71 367.505C1558.68 367.889 1558.63 368.289 1558.57 368.705H1539.9C1540.25 370.177 1540.95 371.377 1542.01 372.305C1543.1 373.233 1544.46 373.697 1546.09 373.697C1547.5 373.697 1548.71 373.377 1549.74 372.737C1550.79 372.097 1551.61 371.297 1552.19 370.337L1557.23 374.129C1556.23 375.697 1554.75 376.977 1552.76 377.969C1550.78 378.961 1548.55 379.457 1546.09 379.457ZM1545.99 358.817C1544.46 358.817 1543.15 359.281 1542.06 360.209C1540.97 361.137 1540.25 362.353 1539.9 363.857H1552.23C1551.88 362.481 1551.15 361.297 1550.03 360.305C1548.94 359.313 1547.59 358.817 1545.99 358.817ZM1561.61 378.833V353.873H1567.99V357.521C1569.3 354.705 1571.85 353.297 1575.62 353.297C1577.42 353.297 1579.03 353.713 1580.47 354.545C1581.91 355.377 1583.05 356.561 1583.88 358.097C1584.71 359.633 1585.13 361.457 1585.13 363.569V378.833H1578.65V365.153C1578.65 362.977 1578.15 361.409 1577.16 360.449C1576.17 359.457 1574.87 358.961 1573.27 358.961C1571.9 358.961 1570.68 359.457 1569.62 360.449C1568.6 361.409 1568.09 362.977 1568.09 365.153V378.833H1561.61ZM1597.78 378.833C1595.32 378.833 1593.43 378.225 1592.12 377.009C1590.81 375.793 1590.15 373.825 1590.15 371.105V359.393H1586.65V353.873H1590.15V348.833L1596.63 348.161V353.873H1601.91V359.393H1596.63V370.769C1596.63 372.305 1597.3 373.073 1598.65 373.073H1601.33V378.833H1597.78ZM1612.39 379.457C1608.19 379.457 1604.74 378.001 1602.02 375.089L1606.39 371.105C1608.21 373.153 1610.16 374.177 1612.24 374.177C1613.36 374.177 1614.21 373.937 1614.79 373.457C1615.39 372.945 1615.7 372.321 1615.7 371.585C1615.7 371.137 1615.59 370.753 1615.36 370.433C1615.17 370.113 1614.74 369.809 1614.07 369.521C1613.43 369.233 1612.45 368.945 1611.14 368.657C1608.9 368.113 1607.23 367.441 1606.15 366.641C1605.06 365.841 1604.34 364.945 1603.99 363.953C1603.63 362.961 1603.46 361.937 1603.46 360.881C1603.46 358.705 1604.27 356.897 1605.91 355.457C1607.57 353.985 1609.86 353.249 1612.77 353.249C1614.79 353.249 1616.51 353.553 1617.95 354.161C1619.39 354.769 1620.75 355.905 1622.03 357.569L1617.33 361.169C1616.72 360.209 1616.03 359.521 1615.27 359.105C1614.53 358.689 1613.75 358.481 1612.91 358.481C1612.02 358.481 1611.27 358.657 1610.66 359.009C1610.08 359.361 1609.79 359.921 1609.79 360.689C1609.79 361.105 1609.99 361.521 1610.37 361.937C1610.75 362.321 1611.68 362.705 1613.15 363.089C1615.59 363.697 1617.44 364.417 1618.72 365.249C1620 366.049 1620.88 366.961 1621.36 367.985C1621.84 369.009 1622.08 370.145 1622.08 371.393C1622.08 372.929 1621.65 374.305 1620.79 375.521C1619.95 376.737 1618.8 377.697 1617.33 378.401C1615.89 379.105 1614.24 379.457 1612.39 379.457ZM1627.5 379.457C1626.25 379.457 1625.21 379.041 1624.38 378.209C1623.58 377.377 1623.18 376.385 1623.18 375.233C1623.18 374.113 1623.58 373.137 1624.38 372.305C1625.21 371.473 1626.25 371.057 1627.5 371.057C1628.75 371.057 1629.77 371.473 1630.57 372.305C1631.37 373.137 1631.77 374.113 1631.77 375.233C1631.77 376.385 1631.37 377.377 1630.57 378.209C1629.77 379.041 1628.75 379.457 1627.5 379.457Z" fill="white"/>
<defs>
<linearGradient id="paint0_linear_118_109" x1="-78.75" y1="-54.1667" x2="421.25" y2="445.833" gradientUnits="userSpaceOnUse">
<stop stop-color="white"/>
<stop offset="0.5" stop-color="#BCF0FF"/>
<stop offset="1" stop-color="#00C8FF"/>
</linearGradient>
<linearGradient id="paint1_linear_118_109" x1="25.25" y1="111.833" x2="318.25" y2="279.333" gradientUnits="userSpaceOnUse">
<stop stop-color="white"/>
<stop offset="0.495192" stop-color="#BCF0FF"/>
<stop offset="1" stop-color="#00C8FF"/>
</linearGradient>
<linearGradient id="paint2_linear_118_109" x1="413.25" y1="101.333" x2="1661.75" y2="298.334" gradientUnits="userSpaceOnUse">
<stop stop-color="white"/>
<stop offset="0.5" stop-color="#BCF0FF"/>
<stop offset="1" stop-color="#00C8FF"/>
</linearGradient>
</defs>
</svg>
