<svg width="1634" height="392" viewBox="0 0 1634 392" fill="none" xmlns="http://www.w3.org/2000/svg">
<path d="M171.25 12.5L330 104.167V287.5L171.25 379.167L12.5 287.5V104.167L171.25 12.5Z" stroke="url(#paint0_linear_118_109)" stroke-width="25" stroke-linejoin="round"/>
<path d="M90.2499 277.335L90.912 282.292C89.3681 282.498 87.8162 281.973 86.7147 280.872C85.6132 279.77 85.0875 278.217 85.2938 276.673L90.2499 277.335ZM119.34 226.405C124.869 226.576 130.148 228.72 134.227 232.438L134.619 232.802L134.68 232.861C143.253 241.326 143.211 255.038 135.744 263.884L135.745 263.885C132.481 267.771 127.864 270.747 123.171 273.04C118.421 275.36 113.24 277.147 108.52 278.498C103.785 279.852 99.4066 280.796 96.2167 281.402C94.6183 281.705 93.3092 281.925 92.3925 282.071C91.934 282.143 91.5729 282.197 91.3221 282.234C91.1969 282.252 91.0989 282.266 91.0302 282.276C90.996 282.281 90.9687 282.284 90.9491 282.287C90.9393 282.288 90.9307 282.29 90.9247 282.291C90.9218 282.291 90.9189 282.291 90.9169 282.292H90.9149C90.9138 282.291 90.9065 282.247 90.2499 277.335C85.4049 276.688 85.2961 276.673 85.2938 276.671C85.2939 276.671 85.2946 276.669 85.2948 276.668L85.2987 276.637C85.3014 276.618 85.3057 276.59 85.3104 276.556C85.32 276.488 85.3333 276.389 85.3514 276.264C85.3879 276.013 85.4419 275.651 85.5145 275.193C85.6598 274.276 85.881 272.968 86.1844 271.37C86.7901 268.18 87.7341 263.801 89.0887 259.065C90.4388 254.345 92.2255 249.165 94.5458 244.415C96.8381 239.722 99.8157 235.104 103.701 231.84C108.066 228.164 113.635 226.228 119.34 226.405ZM119.03 236.4C115.787 236.3 112.62 237.401 110.139 239.493L110.133 239.498C107.768 241.484 105.537 244.7 103.532 248.804C101.556 252.851 99.957 257.431 98.703 261.815C97.7225 265.243 96.9708 268.488 96.4188 271.167C99.0977 270.614 102.342 269.863 105.77 268.882C110.154 267.628 114.736 266.031 118.782 264.054C122.886 262.05 126.102 259.818 128.088 257.454L128.098 257.442C132.446 252.297 132.243 244.537 127.679 240.002C125.335 237.783 122.258 236.5 119.03 236.4ZM252.781 109.835C255.53 109.853 257.75 112.086 257.75 114.835C257.75 137.952 251.209 178.367 208.532 208.588C208.64 209.002 208.754 209.446 208.87 209.917C209.604 212.896 210.491 217.032 211.084 221.634C211.674 226.217 211.993 231.397 211.525 236.426C211.062 241.412 209.793 246.618 206.91 250.943L206.906 250.95C201.895 258.441 192.159 263.049 184.758 265.734C180.89 267.137 177.305 268.136 174.692 268.784C173.382 269.109 172.307 269.348 171.55 269.507C171.171 269.587 170.871 269.648 170.661 269.689C170.557 269.709 170.474 269.725 170.415 269.736C170.386 269.741 170.361 269.746 170.344 269.75C170.335 269.751 170.328 269.752 170.322 269.753C170.32 269.754 170.317 269.754 170.315 269.754L170.312 269.755C170.311 269.756 170.31 269.755 169.417 264.835L170.309 269.755C168.851 270.02 167.351 269.624 166.213 268.674C165.075 267.724 164.417 266.318 164.417 264.835V225.24L142.347 203.169H102.75C101.268 203.169 99.8619 202.511 98.912 201.374C97.9621 200.236 97.5652 198.734 97.83 197.276L102.75 198.169C98.0178 197.31 97.8376 197.276 97.8309 197.274V197.271C97.8313 197.269 97.8324 197.266 97.8329 197.263C97.8339 197.258 97.8352 197.25 97.8368 197.242C97.84 197.224 97.844 197.201 97.8495 197.171C97.8606 197.112 97.8768 197.029 97.8973 196.924C97.9383 196.714 97.9982 196.415 98.078 196.037C98.2376 195.28 98.4767 194.204 98.8016 192.894C99.4498 190.281 100.448 186.696 101.851 182.829C104.536 175.427 109.145 165.692 116.637 160.68L116.643 160.675C120.985 157.781 126.208 156.543 131.202 156.122C136.239 155.697 141.425 156.073 146.01 156.718C150.614 157.367 154.751 158.307 157.73 159.083C158.151 159.192 158.549 159.299 158.923 159.401C168.899 144.594 182.273 132.361 197.949 123.739C214.741 114.503 233.617 109.717 252.781 109.835ZM199.617 214.252C191.531 218.971 183.108 223.09 174.417 226.579V258.521C176.447 257.967 178.84 257.243 181.348 256.333C188.588 253.707 195.515 249.985 198.59 245.396C200.206 242.971 201.188 239.593 201.568 235.5C201.945 231.452 201.7 227.059 201.166 222.913C200.751 219.694 200.17 216.705 199.617 214.252ZM247.635 119.931C231.935 120.614 216.578 124.905 202.768 132.5C187.471 140.914 174.581 153.102 165.323 167.904C165.322 167.906 165.32 167.908 165.319 167.91C165.303 167.936 165.286 167.961 165.269 167.987C159.395 177.167 154.378 186.865 150.276 196.958L170.638 217.319C180.862 213.219 190.696 208.2 200.014 202.316C238.505 176.483 246.638 142.095 247.635 119.931ZM144.615 166.621C140.471 166.037 136.084 165.746 132.043 166.086C127.963 166.431 124.604 167.388 122.196 168.991C117.604 172.063 113.88 178.995 111.252 186.239C110.342 188.747 109.619 191.139 109.064 193.169H141.023C144.514 184.585 148.631 176.27 153.344 168.294C150.879 167.703 147.863 167.078 144.615 166.621Z" fill="url(#paint1_linear_118_109)"/>
<mask id="path-3-outside-1_118_109" maskUnits="userSpaceOnUse" x="413.25" y="119.833" width="1216" height="218" fill="black">
<rect fill="white" x="413.25" y="119.833" width="1216" height="218"/>
<path d="M473.922 284.833C460.781 284.833 450.711 281.591 443.714 275.105C436.717 268.62 433.218 258.124 433.218 243.617V181.153H414.53V151.713H433.218V124.833L467.778 121.249V151.713H495.938V181.153H467.778V241.825C467.778 250.017 471.362 254.113 478.53 254.113H492.866V284.833H473.922ZM569.782 288.161C556.129 288.161 543.926 285.004 533.174 278.689C522.422 272.375 513.974 264.012 507.83 253.601C501.857 243.02 498.87 231.329 498.87 218.529C498.87 205.729 501.857 194.039 507.83 183.457C513.974 172.876 522.422 164.428 533.174 158.113C543.926 151.799 556.129 148.641 569.782 148.641C583.606 148.641 595.809 151.799 606.39 158.113C617.142 164.428 625.505 172.876 631.478 183.457C637.622 194.039 640.694 205.729 640.694 218.529C640.694 231.329 637.622 243.02 631.478 253.601C625.505 264.012 617.142 272.375 606.39 278.689C595.809 285.004 583.606 288.161 569.782 288.161ZM569.782 256.673C577.121 256.673 583.521 254.967 588.982 251.553C594.443 247.969 598.625 243.276 601.526 237.473C604.598 231.671 606.134 225.356 606.134 218.529C606.134 211.532 604.598 205.132 601.526 199.329C598.625 193.527 594.443 188.919 588.982 185.505C583.521 181.921 577.121 180.129 569.782 180.129C562.443 180.129 556.043 181.921 550.582 185.505C545.121 188.919 540.854 193.527 537.782 199.329C534.881 205.132 533.43 211.532 533.43 218.529C533.43 225.356 534.881 231.671 537.782 237.473C540.854 243.276 545.121 247.969 550.582 251.553C556.043 254.967 562.443 256.673 569.782 256.673ZM720.532 288.161C706.879 288.161 694.676 285.004 683.924 278.689C673.172 272.375 664.724 264.012 658.58 253.601C652.607 243.02 649.62 231.329 649.62 218.529C649.62 205.729 652.607 194.039 658.58 183.457C664.724 172.876 673.172 164.428 683.924 158.113C694.676 151.799 706.879 148.641 720.532 148.641C734.356 148.641 746.559 151.799 757.14 158.113C767.892 164.428 776.255 172.876 782.228 183.457C788.372 194.039 791.444 205.729 791.444 218.529C791.444 231.329 788.372 243.02 782.228 253.601C776.255 264.012 767.892 272.375 757.14 278.689C746.559 285.004 734.356 288.161 720.532 288.161ZM720.532 256.673C727.871 256.673 734.271 254.967 739.732 251.553C745.193 247.969 749.375 243.276 752.276 237.473C755.348 231.671 756.884 225.356 756.884 218.529C756.884 211.532 755.348 205.132 752.276 199.329C749.375 193.527 745.193 188.919 739.732 185.505C734.271 181.921 727.871 180.129 720.532 180.129C713.193 180.129 706.793 181.921 701.332 185.505C695.871 188.919 691.604 193.527 688.532 199.329C685.631 205.132 684.18 211.532 684.18 218.529C684.18 225.356 685.631 231.671 688.532 237.473C691.604 243.276 695.871 247.969 701.332 251.553C706.793 254.967 713.193 256.673 720.532 256.673ZM806.74 284.833V151.713H840.788V171.169C847.785 156.151 861.353 148.641 881.492 148.641C891.049 148.641 899.668 150.86 907.348 155.297C915.028 159.735 921.087 166.049 925.524 174.241C929.961 182.433 932.18 192.161 932.18 203.425V284.833H897.62V211.873C897.62 200.268 894.975 191.905 889.684 186.785C884.393 181.495 877.481 178.849 868.948 178.849C861.609 178.849 855.124 181.495 849.492 186.785C844.031 191.905 841.3 200.268 841.3 211.873V284.833H806.74ZM997.058 288.161C974.701 288.161 956.269 280.396 941.762 264.865L965.058 243.617C974.786 254.54 985.197 260.001 996.29 260.001C1002.26 260.001 1006.79 258.721 1009.86 256.161C1013.1 253.431 1014.72 250.103 1014.72 246.177C1014.72 243.788 1014.12 241.74 1012.93 240.033C1011.91 238.327 1009.6 236.705 1006.02 235.169C1002.6 233.633 997.399 232.097 990.402 230.561C978.455 227.66 969.581 224.076 963.778 219.809C957.975 215.543 954.135 210.764 952.258 205.473C950.381 200.183 949.442 194.721 949.442 189.089C949.442 177.484 953.794 167.841 962.498 160.161C971.373 152.311 983.575 148.385 999.106 148.385C1009.86 148.385 1019.07 150.007 1026.75 153.249C1034.43 156.492 1041.69 162.551 1048.51 171.425L1023.43 190.625C1020.18 185.505 1016.51 181.836 1012.42 179.617C1008.49 177.399 1004.31 176.289 999.874 176.289C995.095 176.289 991.085 177.228 987.842 179.105C984.77 180.983 983.234 183.969 983.234 188.065C983.234 190.284 984.258 192.503 986.306 194.721C988.354 196.769 993.303 198.817 1001.15 200.865C1014.12 204.108 1024.02 207.948 1030.85 212.385C1037.68 216.652 1042.37 221.516 1044.93 226.977C1047.49 232.439 1048.77 238.497 1048.77 245.153C1048.77 253.345 1046.47 260.684 1041.86 267.169C1037.42 273.655 1031.28 278.775 1023.43 282.529C1015.75 286.284 1006.96 288.161 997.058 288.161ZM1125.73 288.161C1116.17 288.161 1107.21 286.369 1098.85 282.785C1090.66 279.201 1083.4 274.252 1077.09 267.937C1070.77 261.452 1065.82 254.028 1062.24 245.665C1058.83 237.132 1057.12 228.001 1057.12 218.273C1057.12 205.303 1060.11 193.612 1066.08 183.201C1072.22 172.62 1080.59 164.172 1091.17 157.857C1101.92 151.543 1114.04 148.385 1127.52 148.385C1139.64 148.215 1150.47 150.348 1160.03 154.785C1169.59 159.223 1177.18 165.367 1182.82 173.217L1156.19 194.977C1153.12 190.369 1149.11 186.7 1144.16 183.969C1139.38 181.239 1134.01 179.873 1128.03 179.873C1120.69 179.873 1114.29 181.665 1108.83 185.249C1103.37 188.663 1099.1 193.271 1096.03 199.073C1093.13 204.876 1091.68 211.276 1091.68 218.273C1091.68 225.1 1093.22 231.5 1096.29 237.473C1099.53 243.276 1103.88 247.969 1109.34 251.553C1114.98 254.967 1121.46 256.673 1128.8 256.673C1135.46 256.673 1141.09 255.223 1145.7 252.321C1150.3 249.249 1154.31 245.409 1157.73 240.801L1182.82 262.561C1176.5 270.583 1168.65 276.897 1159.26 281.505C1150.05 285.943 1138.87 288.161 1125.73 288.161ZM1253.78 288.161C1240.13 288.161 1227.93 285.004 1217.17 278.689C1206.42 272.375 1197.97 264.012 1191.83 253.601C1185.86 243.02 1182.87 231.329 1182.87 218.529C1182.87 205.729 1185.86 194.039 1191.83 183.457C1197.97 172.876 1206.42 164.428 1217.17 158.113C1227.93 151.799 1240.13 148.641 1253.78 148.641C1267.61 148.641 1279.81 151.799 1290.39 158.113C1301.14 164.428 1309.5 172.876 1315.48 183.457C1321.62 194.039 1324.69 205.729 1324.69 218.529C1324.69 231.329 1321.62 243.02 1315.48 253.601C1309.5 264.012 1301.14 272.375 1290.39 278.689C1279.81 285.004 1267.61 288.161 1253.78 288.161ZM1253.78 256.673C1261.12 256.673 1267.52 254.967 1272.98 251.553C1278.44 247.969 1282.62 243.276 1285.53 237.473C1288.6 231.671 1290.13 225.356 1290.13 218.529C1290.13 211.532 1288.6 205.132 1285.53 199.329C1282.62 193.527 1278.44 188.919 1272.98 185.505C1267.52 181.921 1261.12 180.129 1253.78 180.129C1246.44 180.129 1240.04 181.921 1234.58 185.505C1229.12 188.919 1224.85 193.527 1221.78 199.329C1218.88 205.132 1217.43 211.532 1217.43 218.529C1217.43 225.356 1218.88 231.671 1221.78 237.473C1224.85 243.276 1229.12 247.969 1234.58 251.553C1240.04 254.967 1246.44 256.673 1253.78 256.673ZM1339.99 336.033V151.713H1374.04V173.217C1377.62 165.879 1382.66 159.991 1389.14 155.553C1395.8 151.116 1404.93 148.897 1416.53 148.897C1425.75 148.897 1434.28 150.775 1442.13 154.529C1450.16 158.113 1457.15 163.148 1463.13 169.633C1469.1 175.948 1473.79 183.372 1477.21 191.905C1480.62 200.268 1482.33 209.228 1482.33 218.785C1482.33 231.585 1479.34 243.276 1473.37 253.857C1467.56 264.268 1459.71 272.631 1449.81 278.945C1439.92 285.089 1428.82 288.161 1416.53 288.161C1405.1 288.161 1396.14 286.113 1389.65 282.017C1383.17 277.751 1378.13 272.119 1374.55 265.121V336.033H1339.99ZM1410.9 256.929C1418.24 256.929 1424.64 255.137 1430.1 251.553C1435.73 247.969 1440.09 243.276 1443.16 237.473C1446.23 231.5 1447.77 225.185 1447.77 218.529C1447.77 211.532 1446.23 205.132 1443.16 199.329C1440.09 193.527 1435.73 188.919 1430.1 185.505C1424.64 181.921 1418.24 180.129 1410.9 180.129C1403.39 180.129 1396.82 181.921 1391.19 185.505C1385.56 189.089 1381.21 193.783 1378.13 199.585C1375.06 205.388 1373.53 211.788 1373.53 218.785C1373.53 225.612 1375.06 231.927 1378.13 237.729C1381.21 243.532 1385.56 248.225 1391.19 251.809C1396.82 255.223 1403.39 256.929 1410.9 256.929ZM1560.23 288.161C1546.58 288.161 1534.55 285.004 1524.14 278.689C1513.73 272.375 1505.62 264.012 1499.82 253.601C1494.19 243.02 1491.37 231.329 1491.37 218.529C1491.37 205.729 1494.36 194.039 1500.33 183.457C1506.3 172.705 1514.41 164.172 1524.65 157.857C1535.06 151.543 1546.92 148.385 1560.23 148.385C1573.55 148.385 1585.24 151.543 1595.31 157.857C1605.55 164.172 1613.48 172.705 1619.11 183.457C1624.92 194.039 1627.82 205.729 1627.82 218.529C1627.82 220.407 1627.73 222.369 1627.56 224.417C1627.39 226.465 1627.14 228.599 1626.79 230.817H1527.21C1529.09 238.668 1532.84 245.068 1538.47 250.017C1544.28 254.967 1551.53 257.441 1560.23 257.441C1567.74 257.441 1574.23 255.735 1579.69 252.321C1585.32 248.908 1589.67 244.641 1592.75 239.521L1619.63 259.745C1614.34 268.108 1606.4 274.935 1595.82 280.225C1585.24 285.516 1573.38 288.161 1560.23 288.161ZM1559.72 178.081C1551.53 178.081 1544.53 180.556 1538.73 185.505C1532.93 190.455 1529.09 196.94 1527.21 204.961H1593C1591.12 197.623 1587.2 191.308 1581.23 186.017C1575.42 180.727 1568.26 178.081 1559.72 178.081Z"/>
</mask>
<path d="M473.922 284.833C460.781 284.833 450.711 281.591 443.714 275.105C436.717 268.62 433.218 258.124 433.218 243.617V181.153H414.53V151.713H433.218V124.833L467.778 121.249V151.713H495.938V181.153H467.778V241.825C467.778 250.017 471.362 254.113 478.53 254.113H492.866V284.833H473.922ZM569.782 288.161C556.129 288.161 543.926 285.004 533.174 278.689C522.422 272.375 513.974 264.012 507.83 253.601C501.857 243.02 498.87 231.329 498.87 218.529C498.87 205.729 501.857 194.039 507.83 183.457C513.974 172.876 522.422 164.428 533.174 158.113C543.926 151.799 556.129 148.641 569.782 148.641C583.606 148.641 595.809 151.799 606.39 158.113C617.142 164.428 625.505 172.876 631.478 183.457C637.622 194.039 640.694 205.729 640.694 218.529C640.694 231.329 637.622 243.02 631.478 253.601C625.505 264.012 617.142 272.375 606.39 278.689C595.809 285.004 583.606 288.161 569.782 288.161ZM569.782 256.673C577.121 256.673 583.521 254.967 588.982 251.553C594.443 247.969 598.625 243.276 601.526 237.473C604.598 231.671 606.134 225.356 606.134 218.529C606.134 211.532 604.598 205.132 601.526 199.329C598.625 193.527 594.443 188.919 588.982 185.505C583.521 181.921 577.121 180.129 569.782 180.129C562.443 180.129 556.043 181.921 550.582 185.505C545.121 188.919 540.854 193.527 537.782 199.329C534.881 205.132 533.43 211.532 533.43 218.529C533.43 225.356 534.881 231.671 537.782 237.473C540.854 243.276 545.121 247.969 550.582 251.553C556.043 254.967 562.443 256.673 569.782 256.673ZM720.532 288.161C706.879 288.161 694.676 285.004 683.924 278.689C673.172 272.375 664.724 264.012 658.58 253.601C652.607 243.02 649.62 231.329 649.62 218.529C649.62 205.729 652.607 194.039 658.58 183.457C664.724 172.876 673.172 164.428 683.924 158.113C694.676 151.799 706.879 148.641 720.532 148.641C734.356 148.641 746.559 151.799 757.14 158.113C767.892 164.428 776.255 172.876 782.228 183.457C788.372 194.039 791.444 205.729 791.444 218.529C791.444 231.329 788.372 243.02 782.228 253.601C776.255 264.012 767.892 272.375 757.14 278.689C746.559 285.004 734.356 288.161 720.532 288.161ZM720.532 256.673C727.871 256.673 734.271 254.967 739.732 251.553C745.193 247.969 749.375 243.276 752.276 237.473C755.348 231.671 756.884 225.356 756.884 218.529C756.884 211.532 755.348 205.132 752.276 199.329C749.375 193.527 745.193 188.919 739.732 185.505C734.271 181.921 727.871 180.129 720.532 180.129C713.193 180.129 706.793 181.921 701.332 185.505C695.871 188.919 691.604 193.527 688.532 199.329C685.631 205.132 684.18 211.532 684.18 218.529C684.18 225.356 685.631 231.671 688.532 237.473C691.604 243.276 695.871 247.969 701.332 251.553C706.793 254.967 713.193 256.673 720.532 256.673ZM806.74 284.833V151.713H840.788V171.169C847.785 156.151 861.353 148.641 881.492 148.641C891.049 148.641 899.668 150.86 907.348 155.297C915.028 159.735 921.087 166.049 925.524 174.241C929.961 182.433 932.18 192.161 932.18 203.425V284.833H897.62V211.873C897.62 200.268 894.975 191.905 889.684 186.785C884.393 181.495 877.481 178.849 868.948 178.849C861.609 178.849 855.124 181.495 849.492 186.785C844.031 191.905 841.3 200.268 841.3 211.873V284.833H806.74ZM997.058 288.161C974.701 288.161 956.269 280.396 941.762 264.865L965.058 243.617C974.786 254.54 985.197 260.001 996.29 260.001C1002.26 260.001 1006.79 258.721 1009.86 256.161C1013.1 253.431 1014.72 250.103 1014.72 246.177C1014.72 243.788 1014.12 241.74 1012.93 240.033C1011.91 238.327 1009.6 236.705 1006.02 235.169C1002.6 233.633 997.399 232.097 990.402 230.561C978.455 227.66 969.581 224.076 963.778 219.809C957.975 215.543 954.135 210.764 952.258 205.473C950.381 200.183 949.442 194.721 949.442 189.089C949.442 177.484 953.794 167.841 962.498 160.161C971.373 152.311 983.575 148.385 999.106 148.385C1009.86 148.385 1019.07 150.007 1026.75 153.249C1034.43 156.492 1041.69 162.551 1048.51 171.425L1023.43 190.625C1020.18 185.505 1016.51 181.836 1012.42 179.617C1008.49 177.399 1004.31 176.289 999.874 176.289C995.095 176.289 991.085 177.228 987.842 179.105C984.77 180.983 983.234 183.969 983.234 188.065C983.234 190.284 984.258 192.503 986.306 194.721C988.354 196.769 993.303 198.817 1001.15 200.865C1014.12 204.108 1024.02 207.948 1030.85 212.385C1037.68 216.652 1042.37 221.516 1044.93 226.977C1047.49 232.439 1048.77 238.497 1048.77 245.153C1048.77 253.345 1046.47 260.684 1041.86 267.169C1037.42 273.655 1031.28 278.775 1023.43 282.529C1015.75 286.284 1006.96 288.161 997.058 288.161ZM1125.73 288.161C1116.17 288.161 1107.21 286.369 1098.85 282.785C1090.66 279.201 1083.4 274.252 1077.09 267.937C1070.77 261.452 1065.82 254.028 1062.24 245.665C1058.83 237.132 1057.12 228.001 1057.12 218.273C1057.12 205.303 1060.11 193.612 1066.08 183.201C1072.22 172.62 1080.59 164.172 1091.17 157.857C1101.92 151.543 1114.04 148.385 1127.52 148.385C1139.64 148.215 1150.47 150.348 1160.03 154.785C1169.59 159.223 1177.18 165.367 1182.82 173.217L1156.19 194.977C1153.12 190.369 1149.11 186.7 1144.16 183.969C1139.38 181.239 1134.01 179.873 1128.03 179.873C1120.69 179.873 1114.29 181.665 1108.83 185.249C1103.37 188.663 1099.1 193.271 1096.03 199.073C1093.13 204.876 1091.68 211.276 1091.68 218.273C1091.68 225.1 1093.22 231.5 1096.29 237.473C1099.53 243.276 1103.88 247.969 1109.34 251.553C1114.98 254.967 1121.46 256.673 1128.8 256.673C1135.46 256.673 1141.09 255.223 1145.7 252.321C1150.3 249.249 1154.31 245.409 1157.73 240.801L1182.82 262.561C1176.5 270.583 1168.65 276.897 1159.26 281.505C1150.05 285.943 1138.87 288.161 1125.73 288.161ZM1253.78 288.161C1240.13 288.161 1227.93 285.004 1217.17 278.689C1206.42 272.375 1197.97 264.012 1191.83 253.601C1185.86 243.02 1182.87 231.329 1182.87 218.529C1182.87 205.729 1185.86 194.039 1191.83 183.457C1197.97 172.876 1206.42 164.428 1217.17 158.113C1227.93 151.799 1240.13 148.641 1253.78 148.641C1267.61 148.641 1279.81 151.799 1290.39 158.113C1301.14 164.428 1309.5 172.876 1315.48 183.457C1321.62 194.039 1324.69 205.729 1324.69 218.529C1324.69 231.329 1321.62 243.02 1315.48 253.601C1309.5 264.012 1301.14 272.375 1290.39 278.689C1279.81 285.004 1267.61 288.161 1253.78 288.161ZM1253.78 256.673C1261.12 256.673 1267.52 254.967 1272.98 251.553C1278.44 247.969 1282.62 243.276 1285.53 237.473C1288.6 231.671 1290.13 225.356 1290.13 218.529C1290.13 211.532 1288.6 205.132 1285.53 199.329C1282.62 193.527 1278.44 188.919 1272.98 185.505C1267.52 181.921 1261.12 180.129 1253.78 180.129C1246.44 180.129 1240.04 181.921 1234.58 185.505C1229.12 188.919 1224.85 193.527 1221.78 199.329C1218.88 205.132 1217.43 211.532 1217.43 218.529C1217.43 225.356 1218.88 231.671 1221.78 237.473C1224.85 243.276 1229.12 247.969 1234.58 251.553C1240.04 254.967 1246.44 256.673 1253.78 256.673ZM1339.99 336.033V151.713H1374.04V173.217C1377.62 165.879 1382.66 159.991 1389.14 155.553C1395.8 151.116 1404.93 148.897 1416.53 148.897C1425.75 148.897 1434.28 150.775 1442.13 154.529C1450.16 158.113 1457.15 163.148 1463.13 169.633C1469.1 175.948 1473.79 183.372 1477.21 191.905C1480.62 200.268 1482.33 209.228 1482.33 218.785C1482.33 231.585 1479.34 243.276 1473.37 253.857C1467.56 264.268 1459.71 272.631 1449.81 278.945C1439.92 285.089 1428.82 288.161 1416.53 288.161C1405.1 288.161 1396.14 286.113 1389.65 282.017C1383.17 277.751 1378.13 272.119 1374.55 265.121V336.033H1339.99ZM1410.9 256.929C1418.24 256.929 1424.64 255.137 1430.1 251.553C1435.73 247.969 1440.09 243.276 1443.16 237.473C1446.23 231.5 1447.77 225.185 1447.77 218.529C1447.77 211.532 1446.23 205.132 1443.16 199.329C1440.09 193.527 1435.73 188.919 1430.1 185.505C1424.64 181.921 1418.24 180.129 1410.9 180.129C1403.39 180.129 1396.82 181.921 1391.19 185.505C1385.56 189.089 1381.21 193.783 1378.13 199.585C1375.06 205.388 1373.53 211.788 1373.53 218.785C1373.53 225.612 1375.06 231.927 1378.13 237.729C1381.21 243.532 1385.56 248.225 1391.19 251.809C1396.82 255.223 1403.39 256.929 1410.9 256.929ZM1560.23 288.161C1546.58 288.161 1534.55 285.004 1524.14 278.689C1513.73 272.375 1505.62 264.012 1499.82 253.601C1494.19 243.02 1491.37 231.329 1491.37 218.529C1491.37 205.729 1494.36 194.039 1500.33 183.457C1506.3 172.705 1514.41 164.172 1524.65 157.857C1535.06 151.543 1546.92 148.385 1560.23 148.385C1573.55 148.385 1585.24 151.543 1595.31 157.857C1605.55 164.172 1613.48 172.705 1619.11 183.457C1624.92 194.039 1627.82 205.729 1627.82 218.529C1627.82 220.407 1627.73 222.369 1627.56 224.417C1627.39 226.465 1627.14 228.599 1626.79 230.817H1527.21C1529.09 238.668 1532.84 245.068 1538.47 250.017C1544.28 254.967 1551.53 257.441 1560.23 257.441C1567.74 257.441 1574.23 255.735 1579.69 252.321C1585.32 248.908 1589.67 244.641 1592.75 239.521L1619.63 259.745C1614.34 268.108 1606.4 274.935 1595.82 280.225C1585.24 285.516 1573.38 288.161 1560.23 288.161ZM1559.72 178.081C1551.53 178.081 1544.53 180.556 1538.73 185.505C1532.93 190.455 1529.09 196.94 1527.21 204.961H1593C1591.12 197.623 1587.2 191.308 1581.23 186.017C1575.42 180.727 1568.26 178.081 1559.72 178.081Z" fill="url(#paint2_linear_118_109)"/>
<path d="M443.714 275.105L443.034 275.839V275.839L443.714 275.105ZM433.218 181.153H434.218V180.153H433.218V181.153ZM414.53 181.153H413.53V182.153H414.53V181.153ZM414.53 151.713V150.713H413.53V151.713H414.53ZM433.218 151.713V152.713H434.218V151.713H433.218ZM433.218 124.833L433.115 123.839L432.218 123.932V124.833H433.218ZM467.778 121.249H468.778V120.14L467.675 120.255L467.778 121.249ZM467.778 151.713H466.778V152.713H467.778V151.713ZM495.938 151.713H496.938V150.713H495.938V151.713ZM495.938 181.153V182.153H496.938V181.153H495.938ZM467.778 181.153V180.153H466.778V181.153H467.778ZM492.866 254.113H493.866V253.113H492.866V254.113ZM492.866 284.833V285.833H493.866V284.833H492.866ZM473.922 284.833V283.833C460.937 283.833 451.146 280.63 444.394 274.372L443.714 275.105L443.034 275.839C450.277 282.551 460.625 285.833 473.922 285.833V284.833ZM443.714 275.105L444.394 274.372C437.687 268.156 434.218 257.99 434.218 243.617H433.218H432.218C432.218 258.258 435.747 269.085 443.034 275.839L443.714 275.105ZM433.218 243.617H434.218V181.153H433.218H432.218V243.617H433.218ZM433.218 181.153V180.153H414.53V181.153V182.153H433.218V181.153ZM414.53 181.153H415.53V151.713H414.53H413.53V181.153H414.53ZM414.53 151.713V152.713H433.218V151.713V150.713H414.53V151.713ZM433.218 151.713H434.218V124.833H433.218H432.218V151.713H433.218ZM433.218 124.833L433.321 125.828L467.881 122.244L467.778 121.249L467.675 120.255L433.115 123.839L433.218 124.833ZM467.778 121.249H466.778V151.713H467.778H468.778V121.249H467.778ZM467.778 151.713V152.713H495.938V151.713V150.713H467.778V151.713ZM495.938 151.713H494.938V181.153H495.938H496.938V151.713H495.938ZM495.938 181.153V180.153H467.778V181.153V182.153H495.938V181.153ZM467.778 181.153H466.778V241.826H467.778H468.778V181.153H467.778ZM467.778 241.826H466.778C466.778 246.045 467.698 249.397 469.713 251.7C471.751 254.029 474.755 255.113 478.53 255.113V254.113V253.113C475.137 253.113 472.765 252.15 471.219 250.383C469.65 248.59 468.778 245.798 468.778 241.826H467.778ZM478.53 254.113V255.113H492.866V254.113V253.113H478.53V254.113ZM492.866 254.113H491.866V284.833H492.866H493.866V254.113H492.866ZM492.866 284.833V283.833H473.922V284.833V285.833H492.866V284.833ZM533.174 278.689L533.68 277.827V277.827L533.174 278.689ZM507.83 253.602L506.959 254.093L506.964 254.101L506.969 254.11L507.83 253.602ZM507.83 183.457L506.965 182.955L506.959 182.966L507.83 183.457ZM533.174 158.113L532.668 157.251V157.251L533.174 158.113ZM606.39 158.113L605.878 158.972L605.884 158.976L606.39 158.113ZM631.478 183.457L630.607 183.949L630.613 183.96L631.478 183.457ZM631.478 253.602L630.613 253.099L630.611 253.104L631.478 253.602ZM606.39 278.689L605.884 277.827L605.878 277.831L606.39 278.689ZM588.982 251.553L589.512 252.401L589.521 252.396L589.531 252.39L588.982 251.553ZM601.526 237.473L600.642 237.006L600.637 237.016L600.632 237.026L601.526 237.473ZM601.526 199.329L600.632 199.777L600.637 199.787L600.642 199.797L601.526 199.329ZM588.982 185.505L588.433 186.342L588.443 186.348L588.452 186.353L588.982 185.505ZM550.582 185.505L551.112 186.353L551.121 186.348L551.131 186.342L550.582 185.505ZM537.782 199.329L536.898 198.862L536.893 198.872L536.888 198.882L537.782 199.329ZM537.782 237.473L536.888 237.921L536.893 237.931L536.898 237.941L537.782 237.473ZM550.582 251.553L550.033 252.39L550.043 252.396L550.052 252.401L550.582 251.553ZM569.782 288.161V287.161C556.289 287.161 544.265 284.043 533.68 277.827L533.174 278.689L532.668 279.552C543.587 285.965 555.968 289.161 569.782 289.161V288.161ZM533.174 278.689L533.68 277.827C523.07 271.596 514.746 263.353 508.691 253.093L507.83 253.602L506.969 254.11C513.202 264.671 521.774 273.154 532.668 279.552L533.174 278.689ZM507.83 253.602L508.701 253.11C502.817 242.687 499.87 231.167 499.87 218.529H498.87H497.87C497.87 231.492 500.897 243.354 506.959 254.093L507.83 253.602ZM498.87 218.529H499.87C499.87 205.892 502.817 194.372 508.701 183.949L507.83 183.457L506.959 182.966C500.897 193.705 497.87 205.567 497.87 218.529H498.87ZM507.83 183.457L508.695 183.96C514.751 173.53 523.074 165.205 533.68 158.976L533.174 158.113L532.668 157.251C521.77 163.651 513.197 172.222 506.965 182.955L507.83 183.457ZM533.174 158.113L533.68 158.976C544.265 152.76 556.289 149.641 569.782 149.641V148.641V147.641C555.968 147.641 543.587 150.838 532.668 157.251L533.174 158.113ZM569.782 148.641V149.641C583.448 149.641 595.469 152.761 605.878 158.972L606.39 158.113L606.902 157.255C596.148 150.837 583.764 147.641 569.782 147.641V148.641ZM606.39 158.113L605.884 158.976C616.488 165.204 624.723 173.525 630.607 183.949L631.478 183.457L632.349 182.966C626.286 172.227 617.796 163.653 606.896 157.251L606.39 158.113ZM631.478 183.457L630.613 183.96C636.664 194.381 639.694 205.897 639.694 218.529H640.694H641.694C641.694 205.562 638.58 193.696 632.343 182.955L631.478 183.457ZM640.694 218.529H639.694C639.694 231.162 636.664 242.678 630.613 253.099L631.478 253.602L632.343 254.104C638.58 243.363 641.694 231.497 641.694 218.529H640.694ZM631.478 253.602L630.611 253.104C624.727 263.358 616.492 271.597 605.884 277.827L606.39 278.689L606.896 279.552C617.792 273.153 626.282 264.667 632.345 254.099L631.478 253.602ZM606.39 278.689L605.878 277.831C595.469 284.042 583.448 287.161 569.782 287.161V288.161V289.161C583.764 289.161 596.148 285.966 606.902 279.548L606.39 278.689ZM569.782 256.673V257.673C577.281 257.673 583.87 255.927 589.512 252.401L588.982 251.553L588.452 250.705C583.171 254.006 576.96 255.673 569.782 255.673V256.673ZM588.982 251.553L589.531 252.39C595.138 248.709 599.44 243.882 602.42 237.921L601.526 237.473L600.632 237.026C597.81 242.67 593.748 247.23 588.433 250.717L588.982 251.553ZM601.526 237.473L602.41 237.941C605.561 231.989 607.134 225.513 607.134 218.529H606.134H605.134C605.134 225.2 603.635 231.353 600.642 237.006L601.526 237.473ZM606.134 218.529H607.134C607.134 211.38 605.563 204.818 602.41 198.862L601.526 199.329L600.642 199.797C603.633 205.446 605.134 211.684 605.134 218.529H606.134ZM601.526 199.329L602.42 198.882C599.437 192.916 595.131 188.169 589.512 184.658L588.982 185.505L588.452 186.353C593.756 189.669 597.812 194.137 600.632 199.777L601.526 199.329ZM588.982 185.505L589.531 184.669C583.887 180.966 577.291 179.129 569.782 179.129V180.129V181.129C576.951 181.129 583.155 182.877 588.433 186.342L588.982 185.505ZM569.782 180.129V179.129C562.273 179.129 555.677 180.966 550.033 184.669L550.582 185.505L551.131 186.342C556.409 182.877 562.613 181.129 569.782 181.129V180.129ZM550.582 185.505L550.052 184.658C544.438 188.166 540.051 192.906 536.898 198.862L537.782 199.329L538.666 199.797C541.657 194.147 545.803 189.672 551.112 186.353L550.582 185.505ZM537.782 199.329L536.888 198.882C533.911 204.835 532.43 211.389 532.43 218.529H533.43H534.43C534.43 211.675 535.85 205.43 538.676 199.777L537.782 199.329ZM533.43 218.529H532.43C532.43 225.503 533.913 231.972 536.888 237.921L537.782 237.473L538.676 237.026C535.848 231.37 534.43 225.209 534.43 218.529H533.43ZM537.782 237.473L536.898 237.941C540.049 243.892 544.43 248.713 550.033 252.39L550.582 251.553L551.131 250.717C545.811 247.226 541.659 242.66 538.666 237.006L537.782 237.473ZM550.582 251.553L550.052 252.401C555.694 255.927 562.283 257.673 569.782 257.673V256.673V255.673C562.604 255.673 556.393 254.006 551.112 250.705L550.582 251.553ZM683.924 278.689L684.43 277.827V277.827L683.924 278.689ZM658.58 253.602L657.709 254.093L657.714 254.101L657.719 254.11L658.58 253.602ZM658.58 183.457L657.715 182.955L657.709 182.966L658.58 183.457ZM683.924 158.113L683.418 157.251V157.251L683.924 158.113ZM757.14 158.113L756.628 158.972L756.634 158.976L757.14 158.113ZM782.228 183.457L781.357 183.949L781.363 183.96L782.228 183.457ZM782.228 253.602L781.363 253.099L781.361 253.104L782.228 253.602ZM757.14 278.689L756.634 277.827L756.628 277.831L757.14 278.689ZM739.732 251.553L740.262 252.401L740.271 252.396L740.281 252.39L739.732 251.553ZM752.276 237.473L751.392 237.006L751.387 237.016L751.382 237.026L752.276 237.473ZM752.276 199.329L751.382 199.777L751.387 199.787L751.392 199.797L752.276 199.329ZM739.732 185.505L739.183 186.342L739.193 186.348L739.202 186.353L739.732 185.505ZM701.332 185.505L701.862 186.353L701.871 186.348L701.881 186.342L701.332 185.505ZM688.532 199.329L687.648 198.862L687.643 198.872L687.638 198.882L688.532 199.329ZM688.532 237.473L687.638 237.921L687.643 237.931L687.648 237.941L688.532 237.473ZM701.332 251.553L700.783 252.39L700.793 252.396L700.802 252.401L701.332 251.553ZM720.532 288.161V287.161C707.039 287.161 695.015 284.043 684.43 277.827L683.924 278.689L683.418 279.552C694.337 285.965 706.718 289.161 720.532 289.161V288.161ZM683.924 278.689L684.43 277.827C673.82 271.596 665.496 263.353 659.441 253.093L658.58 253.602L657.719 254.11C663.952 264.671 672.524 273.154 683.418 279.552L683.924 278.689ZM658.58 253.602L659.451 253.11C653.567 242.687 650.62 231.167 650.62 218.529H649.62H648.62C648.62 231.492 651.647 243.354 657.709 254.093L658.58 253.602ZM649.62 218.529H650.62C650.62 205.892 653.567 194.372 659.451 183.949L658.58 183.457L657.709 182.966C651.647 193.705 648.62 205.567 648.62 218.529H649.62ZM658.58 183.457L659.445 183.96C665.501 173.53 673.824 165.205 684.43 158.976L683.924 158.113L683.418 157.251C672.52 163.651 663.947 172.222 657.715 182.955L658.58 183.457ZM683.924 158.113L684.43 158.976C695.015 152.76 707.039 149.641 720.532 149.641V148.641V147.641C706.718 147.641 694.337 150.838 683.418 157.251L683.924 158.113ZM720.532 148.641V149.641C734.198 149.641 746.219 152.761 756.628 158.972L757.14 158.113L757.652 157.255C746.898 150.837 734.514 147.641 720.532 147.641V148.641ZM757.14 158.113L756.634 158.976C767.238 165.204 775.473 173.525 781.357 183.949L782.228 183.457L783.099 182.966C777.036 172.227 768.546 163.653 757.646 157.251L757.14 158.113ZM782.228 183.457L781.363 183.96C787.414 194.381 790.444 205.897 790.444 218.529H791.444H792.444C792.444 205.562 789.33 193.696 783.093 182.955L782.228 183.457ZM791.444 218.529H790.444C790.444 231.162 787.414 242.678 781.363 253.099L782.228 253.602L783.093 254.104C789.33 243.363 792.444 231.497 792.444 218.529H791.444ZM782.228 253.602L781.361 253.104C775.477 263.358 767.242 271.597 756.634 277.827L757.14 278.689L757.646 279.552C768.542 273.153 777.032 264.667 783.095 254.099L782.228 253.602ZM757.14 278.689L756.628 277.831C746.219 284.042 734.198 287.161 720.532 287.161V288.161V289.161C734.514 289.161 746.898 285.966 757.652 279.548L757.14 278.689ZM720.532 256.673V257.673C728.031 257.673 734.62 255.927 740.262 252.401L739.732 251.553L739.202 250.705C733.921 254.006 727.71 255.673 720.532 255.673V256.673ZM739.732 251.553L740.281 252.39C745.888 248.709 750.19 243.882 753.17 237.921L752.276 237.473L751.382 237.026C748.56 242.67 744.498 247.23 739.183 250.717L739.732 251.553ZM752.276 237.473L753.16 237.941C756.311 231.989 757.884 225.513 757.884 218.529H756.884H755.884C755.884 225.2 754.385 231.353 751.392 237.006L752.276 237.473ZM756.884 218.529H757.884C757.884 211.38 756.313 204.818 753.16 198.862L752.276 199.329L751.392 199.797C754.383 205.446 755.884 211.684 755.884 218.529H756.884ZM752.276 199.329L753.17 198.882C750.187 192.916 745.881 188.169 740.262 184.658L739.732 185.505L739.202 186.353C744.506 189.669 748.562 194.137 751.382 199.777L752.276 199.329ZM739.732 185.505L740.281 184.669C734.637 180.966 728.041 179.129 720.532 179.129V180.129V181.129C727.701 181.129 733.905 182.877 739.183 186.342L739.732 185.505ZM720.532 180.129V179.129C713.023 179.129 706.427 180.966 700.783 184.669L701.332 185.505L701.881 186.342C707.159 182.877 713.363 181.129 720.532 181.129V180.129ZM701.332 185.505L700.802 184.658C695.188 188.166 690.801 192.906 687.648 198.862L688.532 199.329L689.416 199.797C692.407 194.147 696.553 189.672 701.862 186.353L701.332 185.505ZM688.532 199.329L687.638 198.882C684.661 204.835 683.18 211.389 683.18 218.529H684.18H685.18C685.18 211.675 686.6 205.43 689.426 199.777L688.532 199.329ZM684.18 218.529H683.18C683.18 225.503 684.663 231.972 687.638 237.921L688.532 237.473L689.426 237.026C686.598 231.37 685.18 225.209 685.18 218.529H684.18ZM688.532 237.473L687.648 237.941C690.799 243.892 695.18 248.713 700.783 252.39L701.332 251.553L701.881 250.717C696.561 247.226 692.409 242.66 689.416 237.006L688.532 237.473ZM701.332 251.553L700.802 252.401C706.444 255.927 713.033 257.673 720.532 257.673V256.673V255.673C713.354 255.673 707.143 254.006 701.862 250.705L701.332 251.553ZM806.74 284.833H805.74V285.833H806.74V284.833ZM806.74 151.713V150.713H805.74V151.713H806.74ZM840.788 151.713H841.788V150.713H840.788V151.713ZM840.788 171.169H839.788L841.694 171.592L840.788 171.169ZM907.348 155.297L907.848 154.432V154.432L907.348 155.297ZM925.524 174.241L924.645 174.718V174.718L925.524 174.241ZM932.18 284.833V285.833H933.18V284.833H932.18ZM897.62 284.833H896.62V285.833H897.62V284.833ZM889.684 186.785L888.977 187.493L888.983 187.498L888.989 187.504L889.684 186.785ZM849.492 186.785L850.176 187.515L850.177 187.514L849.492 186.785ZM841.3 284.833V285.833H842.3V284.833H841.3ZM806.74 284.833H807.74V151.713H806.74H805.74V284.833H806.74ZM806.74 151.713V152.713H840.788V151.713V150.713H806.74V151.713ZM840.788 151.713H839.788V171.169H840.788H841.788V151.713H840.788ZM840.788 171.169L841.694 171.592C845.11 164.26 850.11 158.793 856.696 155.148C863.294 151.497 871.543 149.641 881.492 149.641V148.641V147.641C871.302 147.641 862.698 149.541 855.728 153.399C848.746 157.263 843.463 163.06 839.882 170.747L840.788 171.169ZM881.492 148.641V149.641C890.888 149.641 899.332 151.821 906.848 156.163L907.348 155.297L907.848 154.432C900.004 149.9 891.211 147.641 881.492 147.641V148.641ZM907.348 155.297L906.848 156.163C914.36 160.504 920.291 166.68 924.645 174.718L925.524 174.241L926.403 173.765C921.883 165.419 915.696 158.966 907.848 154.432L907.348 155.297ZM925.524 174.241L924.645 174.718C928.988 182.736 931.18 192.293 931.18 203.425H932.18H933.18C933.18 192.03 930.935 182.131 926.403 173.765L925.524 174.241ZM932.18 203.425H931.18V284.833H932.18H933.18V203.425H932.18ZM932.18 284.833V283.833H897.62V284.833V285.833H932.18V284.833ZM897.62 284.833H898.62V211.873H897.62H896.62V284.833H897.62ZM897.62 211.873H898.62C898.62 200.149 895.952 191.46 890.379 186.067L889.684 186.785L888.989 187.504C893.997 192.351 896.62 200.387 896.62 211.873H897.62ZM889.684 186.785L890.391 186.078C884.886 180.573 877.706 177.849 868.948 177.849V178.849V179.849C877.257 179.849 883.901 182.416 888.977 187.493L889.684 186.785ZM868.948 178.849V177.849C861.34 177.849 854.614 180.602 848.807 186.057L849.492 186.785L850.177 187.514C855.634 182.388 861.878 179.849 868.948 179.849V178.849ZM849.492 186.785L848.808 186.056C843.057 191.448 840.3 200.142 840.3 211.873H841.3H842.3C842.3 200.395 845.004 192.363 850.176 187.515L849.492 186.785ZM841.3 211.873H840.3V284.833H841.3H842.3V211.873H841.3ZM841.3 284.833V283.833H806.74V284.833V285.833H841.3V284.833ZM941.762 264.865L941.088 264.127L940.34 264.809L941.031 265.548L941.762 264.865ZM965.058 243.617L965.805 242.952L965.132 242.197L964.384 242.879L965.058 243.617ZM1009.86 256.161L1010.5 256.93L1010.5 256.926L1009.86 256.161ZM1012.93 240.033L1012.07 240.548L1012.09 240.578L1012.11 240.607L1012.93 240.033ZM1006.02 235.169L1005.61 236.081L1005.62 236.085L1005.62 236.089L1006.02 235.169ZM990.402 230.561L990.166 231.533L990.177 231.536L990.188 231.538L990.402 230.561ZM963.778 219.809L963.186 220.615V220.615L963.778 219.809ZM952.258 205.473L951.316 205.808V205.808L952.258 205.473ZM962.498 160.161L963.16 160.911L963.161 160.91L962.498 160.161ZM1026.75 153.249L1026.37 154.171V154.171L1026.75 153.249ZM1048.51 171.425L1049.12 172.22L1049.92 171.61L1049.31 170.816L1048.51 171.425ZM1023.43 190.625L1022.58 191.161L1023.17 192.084L1024.03 191.42L1023.43 190.625ZM1012.42 179.617L1011.93 180.488L1011.93 180.492L1011.94 180.497L1012.42 179.617ZM987.842 179.105L987.341 178.24L987.331 178.246L987.321 178.252L987.842 179.105ZM986.306 194.721L985.571 195.4L985.585 195.414L985.599 195.429L986.306 194.721ZM1001.15 200.865L1000.9 201.833L1000.91 201.836L1001.15 200.865ZM1030.85 212.385L1030.3 213.224L1030.31 213.229L1030.32 213.233L1030.85 212.385ZM1044.93 226.977L1045.84 226.553V226.553L1044.93 226.977ZM1041.86 267.169L1041.04 266.59L1041.04 266.598L1041.03 266.605L1041.86 267.169ZM1023.43 282.529L1022.99 281.627L1022.99 281.631L1023.43 282.529ZM997.058 288.161V287.161C974.961 287.161 956.8 279.5 942.493 264.183L941.762 264.865L941.031 265.548C955.738 281.293 974.44 289.161 997.058 289.161V288.161ZM941.762 264.865L942.436 265.604L965.732 244.356L965.058 243.617L964.384 242.879L941.088 264.127L941.762 264.865ZM965.058 243.617L964.311 244.283C974.165 255.347 984.828 261.001 996.29 261.001V260.001V259.001C985.566 259.001 975.407 253.734 965.805 242.952L965.058 243.617ZM996.29 260.001V261.001C1002.39 261.001 1007.18 259.698 1010.5 256.93L1009.86 256.161L1009.22 255.393C1006.4 257.745 1002.14 259.001 996.29 259.001V260.001ZM1009.86 256.161L1010.5 256.926C1013.95 254.023 1015.72 250.424 1015.72 246.177H1014.72H1013.72C1013.72 249.782 1012.25 252.839 1009.21 255.397L1009.86 256.161ZM1014.72 246.177H1015.72C1015.72 243.614 1015.08 241.359 1013.75 239.46L1012.93 240.033L1012.11 240.607C1013.17 242.122 1013.72 243.962 1013.72 246.177H1014.72ZM1012.93 240.033L1013.79 239.519C1012.59 237.527 1010.03 235.802 1006.41 234.25L1006.02 235.169L1005.62 236.089C1009.17 237.609 1011.22 239.127 1012.07 240.548L1012.93 240.033ZM1006.02 235.169L1006.43 234.258C1002.92 232.678 997.632 231.125 990.616 229.585L990.402 230.561L990.188 231.538C997.167 233.07 1002.29 234.589 1005.61 236.081L1006.02 235.169ZM990.402 230.561L990.638 229.59C978.742 226.701 970.017 223.155 964.37 219.004L963.778 219.809L963.186 220.615C969.145 224.997 978.169 228.62 990.166 231.533L990.402 230.561ZM963.778 219.809L964.37 219.004C958.684 214.822 954.994 210.194 953.2 205.139L952.258 205.473L951.316 205.808C953.276 211.334 957.267 216.263 963.186 220.615L963.778 219.809ZM952.258 205.473L953.2 205.139C951.361 199.956 950.442 194.608 950.442 189.089H949.442H948.442C948.442 194.835 949.4 200.41 951.316 205.808L952.258 205.473ZM949.442 189.089H950.442C950.442 177.771 954.671 168.402 963.16 160.911L962.498 160.161L961.836 159.412C952.917 167.281 948.442 177.197 948.442 189.089H949.442ZM962.498 160.161L963.161 160.91C971.802 153.266 983.742 149.385 999.106 149.385V148.385V147.385C983.409 147.385 970.944 151.355 961.835 159.413L962.498 160.161ZM999.106 148.385V149.385C1009.76 149.385 1018.84 150.993 1026.37 154.171L1026.75 153.249L1027.14 152.328C1019.31 149.021 1009.95 147.385 999.106 147.385V148.385ZM1026.75 153.249L1026.37 154.171C1033.84 157.327 1040.97 163.252 1047.72 172.035L1048.51 171.425L1049.31 170.816C1042.41 161.849 1035.03 155.657 1027.14 152.328L1026.75 153.249ZM1048.51 171.425L1047.91 170.631L1022.82 189.831L1023.43 190.625L1024.03 191.42L1049.12 172.22L1048.51 171.425ZM1023.43 190.625L1024.27 190.09C1020.96 184.868 1017.18 181.059 1012.89 178.738L1012.42 179.617L1011.94 180.497C1015.85 182.613 1019.4 186.143 1022.58 191.161L1023.43 190.625ZM1012.42 179.617L1012.91 178.747C1008.84 176.445 1004.49 175.289 999.874 175.289V176.289V177.289C1004.14 177.289 1008.15 178.353 1011.93 180.488L1012.42 179.617ZM999.874 176.289V175.289C994.967 175.289 990.772 176.253 987.341 178.24L987.842 179.105L988.343 179.971C991.397 178.203 995.224 177.289 999.874 177.289V176.289ZM987.842 179.105L987.321 178.252C983.906 180.339 982.234 183.678 982.234 188.065H983.234H984.234C984.234 184.261 985.634 181.627 988.363 179.959L987.842 179.105ZM983.234 188.065H982.234C982.234 190.614 983.415 193.064 985.571 195.4L986.306 194.721L987.041 194.043C985.101 191.942 984.234 189.954 984.234 188.065H983.234ZM986.306 194.721L985.599 195.429C986.764 196.594 988.661 197.679 991.172 198.717C993.704 199.765 996.952 200.803 1000.9 201.833L1001.15 200.865L1001.41 199.898C997.505 198.88 994.353 197.87 991.936 196.869C989.498 195.86 987.896 194.897 987.013 194.014L986.306 194.721ZM1001.15 200.865L1000.91 201.836C1013.83 205.066 1023.61 208.873 1030.3 213.224L1030.85 212.385L1031.4 211.547C1024.44 207.023 1014.41 203.15 1001.4 199.895L1001.15 200.865ZM1030.85 212.385L1030.32 213.233C1037.04 217.431 1041.57 222.164 1044.02 227.402L1044.93 226.977L1045.84 226.553C1043.17 220.868 1038.32 215.873 1031.38 211.537L1030.85 212.385ZM1044.93 226.977L1044.02 227.402C1046.52 232.717 1047.77 238.629 1047.77 245.154H1048.77H1049.77C1049.77 238.366 1048.46 232.16 1045.84 226.553L1044.93 226.977ZM1048.77 245.154H1047.77C1047.77 253.145 1045.53 260.279 1041.04 266.59L1041.86 267.169L1042.67 267.749C1047.41 261.089 1049.77 253.546 1049.77 245.154H1048.77ZM1041.86 267.169L1041.03 266.605C1036.71 272.93 1030.7 277.94 1022.99 281.627L1023.43 282.529L1023.86 283.432C1031.85 279.609 1038.14 274.38 1042.68 267.734L1041.86 267.169ZM1023.43 282.529L1022.99 281.631C1015.46 285.309 1006.83 287.161 997.058 287.161V288.161V289.161C1007.08 289.161 1016.03 287.259 1023.87 283.428L1023.43 282.529ZM1098.85 282.785L1098.45 283.702L1098.45 283.705L1098.85 282.785ZM1077.09 267.938L1076.37 268.635L1076.38 268.645L1077.09 267.938ZM1062.24 245.665L1061.31 246.037L1061.32 246.048L1061.32 246.059L1062.24 245.665ZM1066.08 183.201L1065.22 182.699L1065.21 182.704L1066.08 183.201ZM1091.17 157.857L1090.66 156.995L1090.66 156.999L1091.17 157.857ZM1127.52 148.385V149.386L1127.53 149.385L1127.52 148.385ZM1160.03 154.785L1159.61 155.693V155.693L1160.03 154.785ZM1182.82 173.217L1183.45 173.992L1184.18 173.398L1183.63 172.635L1182.82 173.217ZM1156.19 194.977L1155.36 195.532L1155.97 196.449L1156.82 195.752L1156.19 194.977ZM1144.16 183.969L1143.66 184.838L1143.67 184.841L1143.68 184.845L1144.16 183.969ZM1108.83 185.249L1109.36 186.097L1109.37 186.092L1109.38 186.086L1108.83 185.249ZM1096.03 199.073L1095.15 198.606L1095.14 198.616L1095.14 198.626L1096.03 199.073ZM1096.29 237.473L1095.4 237.931L1095.41 237.946L1095.42 237.961L1096.29 237.473ZM1109.34 251.553L1108.8 252.39L1108.81 252.399L1108.83 252.409L1109.34 251.553ZM1145.7 252.322L1146.23 253.168L1146.24 253.161L1146.25 253.154L1145.7 252.322ZM1157.73 240.801L1158.38 240.046L1157.57 239.338L1156.92 240.206L1157.73 240.801ZM1182.82 262.561L1183.6 263.18L1184.19 262.431L1183.47 261.806L1182.82 262.561ZM1159.26 281.505L1159.7 282.407L1159.7 282.403L1159.26 281.505ZM1125.73 288.161V287.161C1116.3 287.161 1107.47 285.394 1099.24 281.866L1098.85 282.785L1098.45 283.705C1106.95 287.345 1116.04 289.161 1125.73 289.161V288.161ZM1098.85 282.785L1099.25 281.869C1091.17 278.335 1084.02 273.457 1077.8 267.23L1077.09 267.938L1076.38 268.645C1082.78 275.048 1090.14 280.068 1098.45 283.702L1098.85 282.785ZM1077.09 267.938L1077.8 267.24C1071.58 260.843 1066.7 253.522 1063.16 245.272L1062.24 245.665L1061.32 246.059C1064.95 254.534 1069.97 262.061 1076.37 268.635L1077.09 267.938ZM1062.24 245.665L1063.17 245.294C1059.81 236.886 1058.12 227.882 1058.12 218.273H1057.12H1056.12C1056.12 228.121 1057.85 237.379 1061.31 246.037L1062.24 245.665ZM1057.12 218.273H1058.12C1058.12 205.463 1061.07 193.946 1066.95 183.699L1066.08 183.201L1065.21 182.704C1059.15 193.278 1056.12 205.143 1056.12 218.273H1057.12ZM1066.08 183.201L1066.94 183.704C1073 173.27 1081.24 164.944 1091.68 158.716L1091.17 157.857L1090.66 156.999C1079.93 163.4 1071.45 171.97 1065.22 182.699L1066.08 183.201ZM1091.17 157.857L1091.67 158.72C1102.26 152.503 1114.2 149.385 1127.52 149.385V148.385V147.385C1113.87 147.385 1101.58 150.583 1090.66 156.995L1091.17 157.857ZM1127.52 148.385L1127.53 149.385C1139.52 149.217 1150.21 151.327 1159.61 155.693L1160.03 154.785L1160.45 153.878C1150.74 149.369 1139.75 147.213 1127.51 147.386L1127.52 148.385ZM1160.03 154.785L1159.61 155.693C1169.03 160.064 1176.48 166.102 1182 173.8L1182.82 173.217L1183.63 172.635C1177.89 164.632 1170.15 158.382 1160.45 153.878L1160.03 154.785ZM1182.82 173.217L1182.18 172.443L1155.56 194.203L1156.19 194.977L1156.82 195.752L1183.45 173.992L1182.82 173.217ZM1156.19 194.977L1157.02 194.423C1153.86 189.679 1149.73 185.9 1144.64 183.094L1144.16 183.969L1143.68 184.845C1148.49 187.5 1152.38 191.06 1155.36 195.532L1156.19 194.977ZM1144.16 183.969L1144.66 183.101C1139.71 180.277 1134.16 178.873 1128.03 178.873V179.873V180.873C1133.85 180.873 1139.05 182.201 1143.66 184.838L1144.16 183.969ZM1128.03 179.873V178.873C1120.52 178.873 1113.93 180.71 1108.28 184.413L1108.83 185.249L1109.38 186.086C1114.66 182.621 1120.86 180.873 1128.03 180.873V179.873ZM1108.83 185.249L1108.3 184.401C1102.69 187.91 1098.3 192.65 1095.15 198.606L1096.03 199.073L1096.92 199.541C1099.91 193.891 1104.05 189.416 1109.36 186.097L1108.83 185.249ZM1096.03 199.073L1095.14 198.626C1092.16 204.579 1090.68 211.133 1090.68 218.273H1091.68H1092.68C1092.68 211.419 1094.1 205.174 1096.93 199.521L1096.03 199.073ZM1091.68 218.273H1090.68C1090.68 225.257 1092.25 231.814 1095.4 237.931L1096.29 237.473L1097.18 237.016C1094.18 231.187 1092.68 224.944 1092.68 218.273H1091.68ZM1096.29 237.473L1095.42 237.961C1098.73 243.902 1103.2 248.716 1108.8 252.39L1109.34 251.553L1109.89 250.717C1104.57 247.223 1100.33 242.65 1097.16 236.986L1096.29 237.473ZM1109.34 251.553L1108.83 252.409C1114.63 255.927 1121.3 257.673 1128.8 257.673V256.673V255.673C1121.62 255.673 1115.32 254.006 1109.86 250.698L1109.34 251.553ZM1128.8 256.673V257.673C1135.6 257.673 1141.43 256.19 1146.23 253.168L1145.7 252.322L1145.16 251.475C1140.75 254.256 1135.31 255.673 1128.8 255.673V256.673ZM1145.7 252.322L1146.25 253.154C1150.96 250.015 1155.05 246.094 1158.53 241.397L1157.73 240.801L1156.92 240.206C1153.58 244.725 1149.65 248.484 1145.14 251.489L1145.7 252.322ZM1157.73 240.801L1157.07 241.557L1182.16 263.317L1182.82 262.561L1183.47 261.806L1158.38 240.046L1157.73 240.801ZM1182.82 262.561L1182.03 261.943C1175.81 269.844 1168.08 276.064 1158.82 280.608L1159.26 281.505L1159.7 282.403C1169.22 277.731 1177.19 271.322 1183.6 263.18L1182.82 262.561ZM1159.26 281.505L1158.83 280.604C1149.78 284.961 1138.76 287.161 1125.73 287.161V288.161V289.161C1138.98 289.161 1150.31 286.925 1159.7 282.406L1159.26 281.505ZM1217.17 278.689L1217.68 277.827V277.827L1217.17 278.689ZM1191.83 253.602L1190.96 254.093L1190.96 254.101L1190.97 254.11L1191.83 253.602ZM1191.83 183.457L1190.97 182.955L1190.96 182.966L1191.83 183.457ZM1217.17 158.113L1216.67 157.251V157.251L1217.17 158.113ZM1290.39 158.113L1289.88 158.972L1289.88 158.976L1290.39 158.113ZM1315.48 183.457L1314.61 183.949L1314.61 183.96L1315.48 183.457ZM1315.48 253.602L1314.61 253.099L1314.61 253.104L1315.48 253.602ZM1290.39 278.689L1289.88 277.827L1289.88 277.831L1290.39 278.689ZM1272.98 251.553L1273.51 252.401L1273.52 252.396L1273.53 252.39L1272.98 251.553ZM1285.53 237.473L1284.64 237.006L1284.64 237.016L1284.63 237.026L1285.53 237.473ZM1285.53 199.329L1284.63 199.777L1284.64 199.787L1284.64 199.797L1285.53 199.329ZM1272.98 185.505L1272.43 186.342L1272.44 186.348L1272.45 186.353L1272.98 185.505ZM1234.58 185.505L1235.11 186.353L1235.12 186.348L1235.13 186.342L1234.58 185.505ZM1221.78 199.329L1220.9 198.862L1220.89 198.872L1220.89 198.882L1221.78 199.329ZM1221.78 237.473L1220.89 237.921L1220.89 237.931L1220.9 237.941L1221.78 237.473ZM1234.58 251.553L1234.03 252.39L1234.04 252.396L1234.05 252.401L1234.58 251.553ZM1253.78 288.161V287.161C1240.29 287.161 1228.26 284.043 1217.68 277.827L1217.17 278.689L1216.67 279.552C1227.59 285.965 1239.97 289.161 1253.78 289.161V288.161ZM1217.17 278.689L1217.68 277.827C1207.07 271.596 1198.75 263.353 1192.69 253.093L1191.83 253.602L1190.97 254.11C1197.2 264.671 1205.77 273.154 1216.67 279.552L1217.17 278.689ZM1191.83 253.602L1192.7 253.11C1186.82 242.687 1183.87 231.167 1183.87 218.529H1182.87H1181.87C1181.87 231.492 1184.9 243.354 1190.96 254.093L1191.83 253.602ZM1182.87 218.529H1183.87C1183.87 205.892 1186.82 194.372 1192.7 183.949L1191.83 183.457L1190.96 182.966C1184.9 193.705 1181.87 205.567 1181.87 218.529H1182.87ZM1191.83 183.457L1192.69 183.96C1198.75 173.53 1207.07 165.205 1217.68 158.976L1217.17 158.113L1216.67 157.251C1205.77 163.651 1197.2 172.222 1190.97 182.955L1191.83 183.457ZM1217.17 158.113L1217.68 158.976C1228.26 152.76 1240.29 149.641 1253.78 149.641V148.641V147.641C1239.97 147.641 1227.59 150.838 1216.67 157.251L1217.17 158.113ZM1253.78 148.641V149.641C1267.45 149.641 1279.47 152.761 1289.88 158.972L1290.39 158.113L1290.9 157.255C1280.15 150.837 1267.76 147.641 1253.78 147.641V148.641ZM1290.39 158.113L1289.88 158.976C1300.49 165.204 1308.72 173.525 1314.61 183.949L1315.48 183.457L1316.35 182.966C1310.29 172.227 1301.8 163.653 1290.9 157.251L1290.39 158.113ZM1315.48 183.457L1314.61 183.96C1320.66 194.381 1323.69 205.897 1323.69 218.529H1324.69H1325.69C1325.69 205.562 1322.58 193.696 1316.34 182.955L1315.48 183.457ZM1324.69 218.529H1323.69C1323.69 231.162 1320.66 242.678 1314.61 253.099L1315.48 253.602L1316.34 254.104C1322.58 243.363 1325.69 231.497 1325.69 218.529H1324.69ZM1315.48 253.602L1314.61 253.104C1308.73 263.358 1300.49 271.597 1289.88 277.827L1290.39 278.689L1290.9 279.552C1301.79 273.153 1310.28 264.667 1316.35 254.099L1315.48 253.602ZM1290.39 278.689L1289.88 277.831C1279.47 284.042 1267.45 287.161 1253.78 287.161V288.161V289.161C1267.76 289.161 1280.15 285.966 1290.9 279.548L1290.39 278.689ZM1253.78 256.673V257.673C1261.28 257.673 1267.87 255.927 1273.51 252.401L1272.98 251.553L1272.45 250.705C1267.17 254.006 1260.96 255.673 1253.78 255.673V256.673ZM1272.98 251.553L1273.53 252.39C1279.14 248.709 1283.44 243.882 1286.42 237.921L1285.53 237.473L1284.63 237.026C1281.81 242.67 1277.75 247.23 1272.43 250.717L1272.98 251.553ZM1285.53 237.473L1286.41 237.941C1289.56 231.989 1291.13 225.513 1291.13 218.529H1290.13H1289.13C1289.13 225.2 1287.63 231.353 1284.64 237.006L1285.53 237.473ZM1290.13 218.529H1291.13C1291.13 211.38 1289.56 204.818 1286.41 198.862L1285.53 199.329L1284.64 199.797C1287.63 205.446 1289.13 211.684 1289.13 218.529H1290.13ZM1285.53 199.329L1286.42 198.882C1283.44 192.916 1279.13 188.169 1273.51 184.658L1272.98 185.505L1272.45 186.353C1277.76 189.669 1281.81 194.137 1284.63 199.777L1285.53 199.329ZM1272.98 185.505L1273.53 184.669C1267.89 180.966 1261.29 179.129 1253.78 179.129V180.129V181.129C1260.95 181.129 1267.15 182.877 1272.43 186.342L1272.98 185.505ZM1253.78 180.129V179.129C1246.27 179.129 1239.68 180.966 1234.03 184.669L1234.58 185.505L1235.13 186.342C1240.41 182.877 1246.61 181.129 1253.78 181.129V180.129ZM1234.58 185.505L1234.05 184.658C1228.44 188.166 1224.05 192.906 1220.9 198.862L1221.78 199.329L1222.67 199.797C1225.66 194.147 1229.8 189.672 1235.11 186.353L1234.58 185.505ZM1221.78 199.329L1220.89 198.882C1217.91 204.835 1216.43 211.389 1216.43 218.529H1217.43H1218.43C1218.43 211.675 1219.85 205.43 1222.68 199.777L1221.78 199.329ZM1217.43 218.529H1216.43C1216.43 225.503 1217.91 231.972 1220.89 237.921L1221.78 237.473L1222.68 237.026C1219.85 231.37 1218.43 225.209 1218.43 218.529H1217.43ZM1221.78 237.473L1220.9 237.941C1224.05 243.892 1228.43 248.713 1234.03 252.39L1234.58 251.553L1235.13 250.717C1229.81 247.226 1225.66 242.66 1222.67 237.006L1221.78 237.473ZM1234.58 251.553L1234.05 252.401C1239.69 255.927 1246.28 257.673 1253.78 257.673V256.673V255.673C1246.6 255.673 1240.39 254.006 1235.11 250.705L1234.58 251.553ZM1339.99 336.034H1338.99V337.034H1339.99V336.034ZM1339.99 151.713V150.713H1338.99V151.713H1339.99ZM1374.04 151.713H1375.04V150.713H1374.04V151.713ZM1374.04 173.217H1373.04L1374.94 173.656L1374.04 173.217ZM1389.14 155.553L1388.59 154.721L1388.58 154.728L1389.14 155.553ZM1442.13 154.529L1441.7 155.432L1441.71 155.437L1441.73 155.443L1442.13 154.529ZM1463.13 169.633L1462.39 170.311L1462.4 170.321L1463.13 169.633ZM1477.21 191.905L1476.28 192.277L1476.28 192.283L1477.21 191.905ZM1473.37 253.857L1472.5 253.366L1472.49 253.371L1473.37 253.857ZM1449.81 278.945L1450.34 279.795L1450.35 279.789L1449.81 278.945ZM1389.65 282.018L1389.1 282.853L1389.11 282.858L1389.12 282.863L1389.65 282.018ZM1374.55 265.121L1375.44 264.666L1373.55 265.121H1374.55ZM1374.55 336.034V337.034H1375.55V336.034H1374.55ZM1430.1 251.553L1429.57 250.71L1429.55 250.717L1430.1 251.553ZM1443.16 237.473L1444.04 237.941L1444.05 237.931L1443.16 237.473ZM1430.1 185.505L1429.55 186.342L1429.57 186.351L1429.58 186.361L1430.1 185.505ZM1391.19 185.505L1390.65 184.662L1391.19 185.505ZM1378.13 199.585L1379.02 200.053V200.053L1378.13 199.585ZM1378.13 237.729L1379.02 237.262V237.262L1378.13 237.729ZM1391.19 251.809L1390.65 252.653L1390.66 252.659L1390.67 252.665L1391.19 251.809ZM1339.99 336.034H1340.99V151.713H1339.99H1338.99V336.034H1339.99ZM1339.99 151.713V152.713H1374.04V151.713V150.713H1339.99V151.713ZM1374.04 151.713H1373.04V173.217H1374.04H1375.04V151.713H1374.04ZM1374.04 173.217L1374.94 173.656C1378.45 166.467 1383.37 160.714 1389.71 156.379L1389.14 155.553L1388.58 154.728C1381.94 159.267 1376.8 165.291 1373.14 172.779L1374.04 173.217ZM1389.14 155.553L1389.7 156.386C1396.13 152.097 1405.04 149.897 1416.53 149.897V148.897V147.897C1404.82 147.897 1395.47 150.136 1388.59 154.721L1389.14 155.553ZM1416.53 148.897V149.897C1425.61 149.897 1433.99 151.745 1441.7 155.432L1442.13 154.529L1442.57 153.627C1434.57 149.804 1425.89 147.897 1416.53 147.897V148.897ZM1442.13 154.529L1441.73 155.443C1449.62 158.971 1456.51 163.925 1462.39 170.311L1463.13 169.633L1463.86 168.956C1457.8 162.371 1450.69 157.256 1442.54 153.616L1442.13 154.529ZM1463.13 169.633L1462.4 170.321C1468.28 176.539 1472.91 183.854 1476.28 192.277L1477.21 191.905L1478.13 191.534C1474.68 182.891 1469.92 175.358 1463.85 168.946L1463.13 169.633ZM1477.21 191.905L1476.28 192.283C1479.64 200.519 1481.33 209.35 1481.33 218.785H1482.33H1483.33C1483.33 209.106 1481.6 200.017 1478.13 191.528L1477.21 191.905ZM1482.33 218.785H1481.33C1481.33 231.423 1478.38 242.943 1472.5 253.366L1473.37 253.857L1474.24 254.349C1480.3 243.61 1483.33 231.748 1483.33 218.785H1482.33ZM1473.37 253.857L1472.49 253.371C1466.77 263.639 1459.03 271.878 1449.28 278.102L1449.81 278.945L1450.35 279.789C1460.39 273.383 1468.36 264.897 1474.24 254.344L1473.37 253.857ZM1449.81 278.945L1449.29 278.096C1439.56 284.136 1428.65 287.161 1416.53 287.161V288.161V289.161C1429 289.161 1440.28 286.043 1450.34 279.795L1449.81 278.945ZM1416.53 288.161V287.161C1405.2 287.161 1396.45 285.129 1390.19 281.172L1389.65 282.018L1389.12 282.863C1395.83 287.098 1405 289.161 1416.53 289.161V288.161ZM1389.65 282.018L1390.2 281.182C1383.86 277.012 1378.95 271.511 1375.44 264.666L1374.55 265.121L1373.66 265.577C1377.32 272.726 1382.47 278.49 1389.1 282.853L1389.65 282.018ZM1374.55 265.121H1373.55V336.034H1374.55H1375.55V265.121H1374.55ZM1374.55 336.034V335.034H1339.99V336.034V337.034H1374.55V336.034ZM1410.9 256.929V257.929C1418.41 257.929 1425.01 256.093 1430.65 252.39L1430.1 251.553L1429.55 250.717C1424.27 254.182 1418.07 255.929 1410.9 255.929V256.929ZM1430.1 251.553L1430.64 252.397C1436.41 248.722 1440.89 243.9 1444.04 237.941L1443.16 237.473L1442.27 237.006C1439.28 242.652 1435.05 247.217 1429.57 250.71L1430.1 251.553ZM1443.16 237.473L1444.05 237.931C1447.19 231.817 1448.77 225.346 1448.77 218.529H1447.77H1446.77C1446.77 225.025 1445.27 231.183 1442.27 237.016L1443.16 237.473ZM1447.77 218.529H1448.77C1448.77 211.38 1447.2 204.818 1444.04 198.862L1443.16 199.329L1442.27 199.797C1445.26 205.446 1446.77 211.684 1446.77 218.529H1447.77ZM1443.16 199.329L1444.04 198.862C1440.88 192.899 1436.41 188.157 1430.62 184.65L1430.1 185.505L1429.58 186.361C1435.06 189.681 1439.29 194.155 1442.27 199.797L1443.16 199.329ZM1430.1 185.505L1430.65 184.669C1425.01 180.966 1418.41 179.129 1410.9 179.129V180.129V181.129C1418.07 181.129 1424.27 182.877 1429.55 186.342L1430.1 185.505ZM1410.9 180.129V179.129C1403.23 179.129 1396.47 180.963 1390.65 184.662L1391.19 185.505L1391.73 186.349C1397.18 182.88 1403.56 181.129 1410.9 181.129V180.129ZM1391.19 185.505L1390.65 184.662C1384.88 188.337 1380.4 193.159 1377.25 199.118L1378.13 199.585L1379.02 200.053C1382.01 194.407 1386.24 189.842 1391.73 186.349L1391.19 185.505ZM1378.13 199.585L1377.25 199.118C1374.1 205.074 1372.53 211.636 1372.53 218.785H1373.53H1374.53C1374.53 211.94 1376.03 205.702 1379.02 200.053L1378.13 199.585ZM1373.53 218.785H1372.53C1372.53 225.769 1374.1 232.245 1377.25 238.197L1378.13 237.729L1379.02 237.262C1376.03 231.609 1374.53 225.456 1374.53 218.785H1373.53ZM1378.13 237.729L1377.25 238.197C1380.4 244.156 1384.88 248.978 1390.65 252.653L1391.19 251.809L1391.73 250.966C1386.24 247.473 1382.01 242.908 1379.02 237.262L1378.13 237.729ZM1391.19 251.809L1390.67 252.665C1396.48 256.185 1403.24 257.929 1410.9 257.929V256.929V255.929C1403.55 255.929 1397.16 254.26 1391.71 250.954L1391.19 251.809ZM1524.14 278.689L1523.62 279.545V279.545L1524.14 278.689ZM1499.82 253.602L1498.94 254.071L1498.94 254.08L1498.94 254.088L1499.82 253.602ZM1500.33 183.457L1501.2 183.949L1501.2 183.943L1500.33 183.457ZM1524.65 157.857L1524.13 157.002L1524.13 157.006L1524.65 157.857ZM1595.31 157.857L1594.77 158.705L1594.78 158.709L1595.31 157.857ZM1619.11 183.457L1618.23 183.921L1618.23 183.93L1618.24 183.938L1619.11 183.457ZM1627.56 224.417L1628.56 224.501V224.501L1627.56 224.417ZM1626.79 230.817V231.817H1627.65L1627.78 230.97L1626.79 230.817ZM1527.21 230.817V229.817H1525.94L1526.24 231.05L1527.21 230.817ZM1538.47 250.017L1537.81 250.769L1537.82 250.774L1537.83 250.778L1538.47 250.017ZM1579.69 252.322L1579.17 251.466L1579.16 251.473L1579.69 252.322ZM1592.75 239.521L1593.35 238.722L1592.46 238.055L1591.89 239.007L1592.75 239.521ZM1619.63 259.745L1620.47 260.28L1620.96 259.501L1620.23 258.946L1619.63 259.745ZM1595.82 280.225L1596.27 281.12V281.12L1595.82 280.225ZM1538.73 185.505L1539.38 186.266V186.266L1538.73 185.505ZM1527.21 204.961L1526.24 204.734L1525.95 205.961H1527.21V204.961ZM1593 204.961V205.961H1594.29L1593.97 204.714L1593 204.961ZM1581.23 186.017L1580.55 186.756L1580.56 186.761L1580.56 186.766L1581.23 186.017ZM1560.23 288.161V287.161C1546.74 287.161 1534.89 284.043 1524.66 277.834L1524.14 278.689L1523.62 279.545C1534.2 285.965 1546.42 289.161 1560.23 289.161V288.161ZM1524.14 278.689L1524.66 277.834C1514.39 271.608 1506.41 263.371 1500.69 253.115L1499.82 253.602L1498.94 254.088C1504.83 264.654 1513.06 273.142 1523.62 279.545L1524.14 278.689ZM1499.82 253.602L1500.7 253.132C1495.15 242.705 1492.37 231.177 1492.37 218.529H1491.37H1490.37C1490.37 231.482 1493.22 243.336 1498.94 254.071L1499.82 253.602ZM1491.37 218.529H1492.37C1492.37 205.892 1495.32 194.372 1501.2 183.949L1500.33 183.457L1499.46 182.966C1493.4 193.705 1490.37 205.567 1490.37 218.529H1491.37ZM1500.33 183.457L1501.2 183.943C1507.1 173.337 1515.08 164.931 1525.17 158.709L1524.65 157.857L1524.13 157.006C1513.74 163.413 1505.51 172.074 1499.46 182.972L1500.33 183.457ZM1524.65 157.857L1525.17 158.712C1535.41 152.501 1547.09 149.385 1560.23 149.385V148.385V147.385C1546.76 147.385 1534.71 150.584 1524.13 157.002L1524.65 157.857ZM1560.23 148.385V149.385C1573.38 149.385 1584.88 152.502 1594.77 158.705L1595.31 157.857L1595.84 157.01C1585.59 150.584 1573.71 147.385 1560.23 147.385V148.385ZM1595.31 157.857L1594.78 158.709C1604.87 164.928 1612.68 173.327 1618.23 183.921L1619.11 183.457L1620 182.993C1614.29 172.084 1606.23 163.416 1595.83 157.006L1595.31 157.857ZM1619.11 183.457L1618.24 183.938C1623.95 194.363 1626.82 205.887 1626.82 218.529H1627.82H1628.82C1628.82 205.572 1625.88 193.714 1619.99 182.977L1619.11 183.457ZM1627.82 218.529H1626.82C1626.82 220.377 1626.73 222.312 1626.57 224.334L1627.56 224.417L1628.56 224.501C1628.73 222.427 1628.82 220.437 1628.82 218.529H1627.82ZM1627.56 224.417L1626.57 224.334C1626.4 226.357 1626.14 228.468 1625.81 230.665L1626.79 230.817L1627.78 230.97C1628.13 228.73 1628.39 226.574 1628.56 224.501L1627.56 224.417ZM1626.79 230.817V229.817H1527.21V230.817V231.817H1626.79V230.817ZM1527.21 230.817L1526.24 231.05C1528.16 239.085 1532.01 245.672 1537.81 250.769L1538.47 250.017L1539.13 249.266C1533.67 244.464 1530.02 238.251 1528.18 230.585L1527.21 230.817ZM1538.47 250.017L1537.83 250.778C1543.83 255.904 1551.33 258.441 1560.23 258.441V257.441V256.441C1551.73 256.441 1544.72 254.03 1539.12 249.257L1538.47 250.017ZM1560.23 257.441V258.441C1567.9 258.441 1574.57 256.698 1580.22 253.169L1579.69 252.322L1579.16 251.473C1573.88 254.772 1567.59 256.441 1560.23 256.441V257.441ZM1579.69 252.322L1580.21 253.177C1585.96 249.688 1590.44 245.309 1593.6 240.036L1592.75 239.521L1591.89 239.007C1588.91 243.974 1584.68 248.128 1579.17 251.466L1579.69 252.322ZM1592.75 239.521L1592.14 240.321L1619.02 260.545L1619.63 259.745L1620.23 258.946L1593.35 238.722L1592.75 239.521ZM1619.63 259.745L1618.78 259.211C1613.61 267.392 1605.82 274.106 1595.37 279.331L1595.82 280.225L1596.27 281.12C1606.98 275.764 1615.07 268.824 1620.47 260.28L1619.63 259.745ZM1595.82 280.225L1595.37 279.331C1584.94 284.545 1573.24 287.161 1560.23 287.161V288.161V289.161C1573.51 289.161 1585.53 286.487 1596.27 281.12L1595.82 280.225ZM1559.72 178.081V177.081C1551.31 177.081 1544.08 179.629 1538.08 184.745L1538.73 185.505L1539.38 186.266C1544.99 181.483 1551.75 179.081 1559.72 179.081V178.081ZM1538.73 185.505L1538.08 184.745C1532.1 189.844 1528.16 196.522 1526.24 204.734L1527.21 204.961L1528.18 205.189C1530.02 197.358 1533.75 191.066 1539.38 186.266L1538.73 185.505ZM1527.21 204.961V205.961H1593V204.961V203.961H1527.21V204.961ZM1593 204.961L1593.97 204.714C1592.04 197.171 1588 190.685 1581.89 185.269L1581.23 186.017L1580.56 186.766C1586.4 191.932 1590.21 198.075 1592.03 205.209L1593 204.961ZM1581.23 186.017L1581.9 185.279C1575.9 179.805 1568.48 177.081 1559.72 177.081V178.081V179.081C1568.03 179.081 1574.95 181.649 1580.55 186.756L1581.23 186.017Z" fill="url(#paint3_linear_118_109)" mask="url(#path-3-outside-1_118_109)"/>
<defs>
<linearGradient id="paint0_linear_118_109" x1="-78.75" y1="-54.1667" x2="421.25" y2="445.833" gradientUnits="userSpaceOnUse">
<stop stop-color="#D4D4D4"/>
<stop offset="0.5" stop-color="#BCF0FF"/>
<stop offset="1" stop-color="#00C8FF"/>
</linearGradient>
<linearGradient id="paint1_linear_118_109" x1="25.25" y1="111.833" x2="318.25" y2="279.333" gradientUnits="userSpaceOnUse">
<stop stop-color="#D4D4D4"/>
<stop offset="0.495192" stop-color="#BCF0FF"/>
<stop offset="1" stop-color="#00C8FF"/>
</linearGradient>
<linearGradient id="paint2_linear_118_109" x1="413.25" y1="101.333" x2="1661.75" y2="298.334" gradientUnits="userSpaceOnUse">
<stop stop-color="#D4D4D4"/>
<stop offset="0.5" stop-color="#BCF0FF"/>
<stop offset="1" stop-color="#00C8FF"/>
</linearGradient>
<linearGradient id="paint3_linear_118_109" x1="62.6202" y1="-31.712" x2="265.913" y2="828.422" gradientUnits="userSpaceOnUse">
<stop stop-color="#D4D4D4"/>
<stop offset="0.5" stop-color="#BCF0FF"/>
<stop offset="1" stop-color="#00C8FF"/>
</linearGradient>
</defs>
</svg>
