<svg width="1634" height="392" viewBox="0 0 1634 392" fill="none" xmlns="http://www.w3.org/2000/svg">
<path d="M171.25 12.5L330 104.167V287.5L171.25 379.167L12.5 287.5V104.167L171.25 12.5Z" stroke="url(#paint0_linear_117_105)" stroke-width="25" stroke-linejoin="round"/>
<path d="M90.25 277.336L90.9121 282.292C89.3682 282.498 87.8163 281.973 86.7148 280.872C85.6133 279.77 85.0876 278.218 85.2939 276.674L90.25 277.336ZM119.34 226.405C124.869 226.576 130.148 228.72 134.228 232.438L134.619 232.802L134.68 232.861C143.253 241.326 143.211 255.038 135.744 263.884L135.745 263.885C132.481 267.771 127.864 270.747 123.171 273.04C118.421 275.36 113.24 277.148 108.521 278.498C103.785 279.852 99.4067 280.796 96.2168 281.402C94.6184 281.706 93.3093 281.926 92.3926 282.071C91.9342 282.144 91.573 282.198 91.3223 282.234C91.197 282.252 91.099 282.267 91.0303 282.276C90.9961 282.281 90.9688 282.284 90.9492 282.287C90.9394 282.288 90.9308 282.29 90.9248 282.291C90.9219 282.291 90.919 282.291 90.917 282.292H90.915C90.9139 282.291 90.9066 282.247 90.25 277.336C85.405 276.688 85.2962 276.673 85.2939 276.672C85.294 276.671 85.2947 276.67 85.2949 276.669L85.2988 276.637C85.3015 276.618 85.3058 276.59 85.3105 276.556C85.3201 276.488 85.3334 276.389 85.3516 276.264C85.388 276.014 85.442 275.652 85.5146 275.193C85.66 274.276 85.8811 272.968 86.1846 271.37C86.7903 268.18 87.7342 263.801 89.0889 259.065C90.439 254.345 92.2257 249.165 94.5459 244.415C96.8382 239.722 99.8158 235.104 103.701 231.841C108.067 228.164 113.635 226.229 119.34 226.405ZM119.03 236.4C115.787 236.3 112.62 237.402 110.139 239.493L110.133 239.498C107.768 241.484 105.537 244.701 103.532 248.804C101.556 252.851 99.9571 257.431 98.7031 261.815C97.7226 265.243 96.971 268.488 96.4189 271.167C99.0978 270.615 102.342 269.863 105.771 268.883C110.155 267.629 114.736 266.031 118.782 264.054C122.886 262.05 126.102 259.818 128.088 257.454L128.098 257.442C132.446 252.297 132.243 244.537 127.679 240.003C125.335 237.783 122.258 236.5 119.03 236.4ZM252.781 109.836C255.53 109.853 257.75 112.087 257.75 114.836C257.75 137.952 251.209 178.368 208.532 208.589C208.64 209.002 208.754 209.446 208.87 209.918C209.605 212.896 210.491 217.032 211.084 221.634C211.675 226.217 211.993 231.398 211.525 236.426C211.062 241.412 209.793 246.618 206.91 250.943L206.906 250.95C201.895 258.441 192.159 263.049 184.758 265.734C180.89 267.137 177.305 268.136 174.692 268.784C173.382 269.109 172.307 269.348 171.55 269.508C171.171 269.587 170.871 269.648 170.661 269.689C170.557 269.71 170.474 269.725 170.415 269.736C170.386 269.742 170.361 269.746 170.344 269.75C170.335 269.751 170.328 269.753 170.322 269.754C170.32 269.754 170.317 269.754 170.315 269.755L170.312 269.756C170.311 269.756 170.31 269.755 169.417 264.836L170.31 269.756C168.851 270.02 167.351 269.624 166.213 268.675C165.075 267.725 164.417 266.318 164.417 264.836V225.24L142.347 203.17H102.75C101.268 203.17 99.8621 202.511 98.9121 201.374C97.9622 200.236 97.5653 198.735 97.8301 197.276L102.75 198.17C98.0179 197.311 97.8377 197.276 97.8311 197.274V197.271C97.8315 197.269 97.8325 197.266 97.833 197.263C97.834 197.258 97.8353 197.25 97.8369 197.242C97.8401 197.224 97.8441 197.201 97.8496 197.172C97.8607 197.113 97.877 197.029 97.8975 196.925C97.9385 196.715 97.9983 196.415 98.0781 196.037C98.2377 195.28 98.4768 194.204 98.8018 192.894C99.4499 190.281 100.449 186.697 101.852 182.829C104.536 175.427 109.146 165.692 116.637 160.68L116.644 160.676C120.985 157.781 126.208 156.543 131.202 156.122C136.239 155.697 141.425 156.073 146.01 156.718C150.614 157.367 154.751 158.307 157.73 159.083C158.151 159.192 158.549 159.299 158.923 159.401C168.899 144.594 182.273 132.361 197.949 123.739C214.741 114.503 233.617 109.717 252.781 109.836ZM199.617 214.253C191.531 218.971 183.108 223.09 174.417 226.579V258.521C176.448 257.967 178.84 257.243 181.348 256.334C188.588 253.707 195.516 249.985 198.59 245.396C200.206 242.971 201.188 239.593 201.568 235.501C201.945 231.452 201.7 227.059 201.166 222.913C200.751 219.694 200.17 216.705 199.617 214.253ZM247.635 119.931C231.935 120.615 216.578 124.906 202.769 132.501C187.471 140.914 174.581 153.102 165.323 167.904C165.322 167.906 165.321 167.908 165.319 167.91C165.303 167.936 165.286 167.961 165.27 167.987C159.395 177.167 154.378 186.865 150.276 196.958L170.638 217.319C180.862 213.219 190.696 208.2 200.014 202.316C238.505 176.483 246.638 142.095 247.635 119.931ZM144.615 166.621C140.471 166.037 136.084 165.746 132.043 166.087C127.963 166.431 124.604 167.388 122.196 168.991C117.604 172.063 113.88 178.995 111.252 186.239C110.342 188.747 109.619 191.139 109.064 193.17H141.023C144.514 184.585 148.631 176.27 153.344 168.295C150.879 167.704 147.864 167.078 144.615 166.621Z" fill="url(#paint1_linear_117_105)"/>
<path d="M473.922 284.833C460.781 284.833 450.711 281.591 443.714 275.105C436.717 268.62 433.218 258.124 433.218 243.617V181.153H414.53V151.713H433.218V124.833L467.778 121.249V151.713H495.938V181.153H467.778V241.825C467.778 250.017 471.362 254.113 478.53 254.113H492.866V284.833H473.922ZM569.782 288.161C556.129 288.161 543.926 285.004 533.174 278.689C522.422 272.375 513.974 264.012 507.83 253.601C501.857 243.02 498.87 231.329 498.87 218.529C498.87 205.729 501.857 194.039 507.83 183.457C513.974 172.876 522.422 164.428 533.174 158.113C543.926 151.799 556.129 148.641 569.782 148.641C583.606 148.641 595.809 151.799 606.39 158.113C617.142 164.428 625.505 172.876 631.478 183.457C637.622 194.039 640.694 205.729 640.694 218.529C640.694 231.329 637.622 243.02 631.478 253.601C625.505 264.012 617.142 272.375 606.39 278.689C595.809 285.004 583.606 288.161 569.782 288.161ZM569.782 256.673C577.121 256.673 583.521 254.967 588.982 251.553C594.443 247.969 598.625 243.276 601.526 237.473C604.598 231.671 606.134 225.356 606.134 218.529C606.134 211.532 604.598 205.132 601.526 199.329C598.625 193.527 594.443 188.919 588.982 185.505C583.521 181.921 577.121 180.129 569.782 180.129C562.443 180.129 556.043 181.921 550.582 185.505C545.121 188.919 540.854 193.527 537.782 199.329C534.881 205.132 533.43 211.532 533.43 218.529C533.43 225.356 534.881 231.671 537.782 237.473C540.854 243.276 545.121 247.969 550.582 251.553C556.043 254.967 562.443 256.673 569.782 256.673ZM720.532 288.161C706.879 288.161 694.676 285.004 683.924 278.689C673.172 272.375 664.724 264.012 658.58 253.601C652.607 243.02 649.62 231.329 649.62 218.529C649.62 205.729 652.607 194.039 658.58 183.457C664.724 172.876 673.172 164.428 683.924 158.113C694.676 151.799 706.879 148.641 720.532 148.641C734.356 148.641 746.559 151.799 757.14 158.113C767.892 164.428 776.255 172.876 782.228 183.457C788.372 194.039 791.444 205.729 791.444 218.529C791.444 231.329 788.372 243.02 782.228 253.601C776.255 264.012 767.892 272.375 757.14 278.689C746.559 285.004 734.356 288.161 720.532 288.161ZM720.532 256.673C727.871 256.673 734.271 254.967 739.732 251.553C745.193 247.969 749.375 243.276 752.276 237.473C755.348 231.671 756.884 225.356 756.884 218.529C756.884 211.532 755.348 205.132 752.276 199.329C749.375 193.527 745.193 188.919 739.732 185.505C734.271 181.921 727.871 180.129 720.532 180.129C713.193 180.129 706.793 181.921 701.332 185.505C695.871 188.919 691.604 193.527 688.532 199.329C685.631 205.132 684.18 211.532 684.18 218.529C684.18 225.356 685.631 231.671 688.532 237.473C691.604 243.276 695.871 247.969 701.332 251.553C706.793 254.967 713.193 256.673 720.532 256.673ZM806.74 284.833V151.713H840.788V171.169C847.785 156.151 861.353 148.641 881.492 148.641C891.049 148.641 899.668 150.86 907.348 155.297C915.028 159.735 921.087 166.049 925.524 174.241C929.961 182.433 932.18 192.161 932.18 203.425V284.833H897.62V211.873C897.62 200.268 894.975 191.905 889.684 186.785C884.393 181.495 877.481 178.849 868.948 178.849C861.609 178.849 855.124 181.495 849.492 186.785C844.031 191.905 841.3 200.268 841.3 211.873V284.833H806.74ZM997.058 288.161C974.701 288.161 956.269 280.396 941.762 264.865L965.058 243.617C974.786 254.54 985.197 260.001 996.29 260.001C1002.26 260.001 1006.79 258.721 1009.86 256.161C1013.1 253.431 1014.72 250.103 1014.72 246.177C1014.72 243.788 1014.12 241.74 1012.93 240.033C1011.91 238.327 1009.6 236.705 1006.02 235.169C1002.6 233.633 997.399 232.097 990.402 230.561C978.455 227.66 969.581 224.076 963.778 219.809C957.975 215.543 954.135 210.764 952.258 205.473C950.381 200.183 949.442 194.721 949.442 189.089C949.442 177.484 953.794 167.841 962.498 160.161C971.373 152.311 983.575 148.385 999.106 148.385C1009.86 148.385 1019.07 150.007 1026.75 153.249C1034.43 156.492 1041.69 162.551 1048.51 171.425L1023.43 190.625C1020.18 185.505 1016.51 181.836 1012.42 179.617C1008.49 177.399 1004.31 176.289 999.874 176.289C995.095 176.289 991.085 177.228 987.842 179.105C984.77 180.983 983.234 183.969 983.234 188.065C983.234 190.284 984.258 192.503 986.306 194.721C988.354 196.769 993.303 198.817 1001.15 200.865C1014.12 204.108 1024.02 207.948 1030.85 212.385C1037.68 216.652 1042.37 221.516 1044.93 226.977C1047.49 232.439 1048.77 238.497 1048.77 245.153C1048.77 253.345 1046.47 260.684 1041.86 267.169C1037.42 273.655 1031.28 278.775 1023.43 282.529C1015.75 286.284 1006.96 288.161 997.058 288.161ZM1125.73 288.161C1116.17 288.161 1107.21 286.369 1098.85 282.785C1090.66 279.201 1083.4 274.252 1077.09 267.937C1070.77 261.452 1065.82 254.028 1062.24 245.665C1058.83 237.132 1057.12 228.001 1057.12 218.273C1057.12 205.303 1060.11 193.612 1066.08 183.201C1072.22 172.62 1080.59 164.172 1091.17 157.857C1101.92 151.543 1114.04 148.385 1127.52 148.385C1139.64 148.215 1150.47 150.348 1160.03 154.785C1169.59 159.223 1177.18 165.367 1182.82 173.217L1156.19 194.977C1153.12 190.369 1149.11 186.7 1144.16 183.969C1139.38 181.239 1134.01 179.873 1128.03 179.873C1120.69 179.873 1114.29 181.665 1108.83 185.249C1103.37 188.663 1099.1 193.271 1096.03 199.073C1093.13 204.876 1091.68 211.276 1091.68 218.273C1091.68 225.1 1093.22 231.5 1096.29 237.473C1099.53 243.276 1103.88 247.969 1109.34 251.553C1114.98 254.967 1121.46 256.673 1128.8 256.673C1135.46 256.673 1141.09 255.223 1145.7 252.321C1150.3 249.249 1154.31 245.409 1157.73 240.801L1182.82 262.561C1176.5 270.583 1168.65 276.897 1159.26 281.505C1150.05 285.943 1138.87 288.161 1125.73 288.161ZM1253.78 288.161C1240.13 288.161 1227.93 285.004 1217.17 278.689C1206.42 272.375 1197.97 264.012 1191.83 253.601C1185.86 243.02 1182.87 231.329 1182.87 218.529C1182.87 205.729 1185.86 194.039 1191.83 183.457C1197.97 172.876 1206.42 164.428 1217.17 158.113C1227.93 151.799 1240.13 148.641 1253.78 148.641C1267.61 148.641 1279.81 151.799 1290.39 158.113C1301.14 164.428 1309.5 172.876 1315.48 183.457C1321.62 194.039 1324.69 205.729 1324.69 218.529C1324.69 231.329 1321.62 243.02 1315.48 253.601C1309.5 264.012 1301.14 272.375 1290.39 278.689C1279.81 285.004 1267.61 288.161 1253.78 288.161ZM1253.78 256.673C1261.12 256.673 1267.52 254.967 1272.98 251.553C1278.44 247.969 1282.62 243.276 1285.53 237.473C1288.6 231.671 1290.13 225.356 1290.13 218.529C1290.13 211.532 1288.6 205.132 1285.53 199.329C1282.62 193.527 1278.44 188.919 1272.98 185.505C1267.52 181.921 1261.12 180.129 1253.78 180.129C1246.44 180.129 1240.04 181.921 1234.58 185.505C1229.12 188.919 1224.85 193.527 1221.78 199.329C1218.88 205.132 1217.43 211.532 1217.43 218.529C1217.43 225.356 1218.88 231.671 1221.78 237.473C1224.85 243.276 1229.12 247.969 1234.58 251.553C1240.04 254.967 1246.44 256.673 1253.78 256.673ZM1339.99 336.033V151.713H1374.04V173.217C1377.62 165.879 1382.66 159.991 1389.14 155.553C1395.8 151.116 1404.93 148.897 1416.53 148.897C1425.75 148.897 1434.28 150.775 1442.13 154.529C1450.16 158.113 1457.15 163.148 1463.13 169.633C1469.1 175.948 1473.79 183.372 1477.21 191.905C1480.62 200.268 1482.33 209.228 1482.33 218.785C1482.33 231.585 1479.34 243.276 1473.37 253.857C1467.56 264.268 1459.71 272.631 1449.81 278.945C1439.92 285.089 1428.82 288.161 1416.53 288.161C1405.1 288.161 1396.14 286.113 1389.65 282.017C1383.17 277.751 1378.13 272.119 1374.55 265.121V336.033H1339.99ZM1410.9 256.929C1418.24 256.929 1424.64 255.137 1430.1 251.553C1435.73 247.969 1440.09 243.276 1443.16 237.473C1446.23 231.5 1447.77 225.185 1447.77 218.529C1447.77 211.532 1446.23 205.132 1443.16 199.329C1440.09 193.527 1435.73 188.919 1430.1 185.505C1424.64 181.921 1418.24 180.129 1410.9 180.129C1403.39 180.129 1396.82 181.921 1391.19 185.505C1385.56 189.089 1381.21 193.783 1378.13 199.585C1375.06 205.388 1373.53 211.788 1373.53 218.785C1373.53 225.612 1375.06 231.927 1378.13 237.729C1381.21 243.532 1385.56 248.225 1391.19 251.809C1396.82 255.223 1403.39 256.929 1410.9 256.929ZM1560.23 288.161C1546.58 288.161 1534.55 285.004 1524.14 278.689C1513.73 272.375 1505.62 264.012 1499.82 253.601C1494.19 243.02 1491.37 231.329 1491.37 218.529C1491.37 205.729 1494.36 194.039 1500.33 183.457C1506.3 172.705 1514.41 164.172 1524.65 157.857C1535.06 151.543 1546.92 148.385 1560.23 148.385C1573.55 148.385 1585.24 151.543 1595.31 157.857C1605.55 164.172 1613.48 172.705 1619.11 183.457C1624.92 194.039 1627.82 205.729 1627.82 218.529C1627.82 220.407 1627.73 222.369 1627.56 224.417C1627.39 226.465 1627.14 228.599 1626.79 230.817H1527.21C1529.09 238.668 1532.84 245.068 1538.47 250.017C1544.28 254.967 1551.53 257.441 1560.23 257.441C1567.74 257.441 1574.23 255.735 1579.69 252.321C1585.32 248.908 1589.67 244.641 1592.75 239.521L1619.63 259.745C1614.34 268.108 1606.4 274.935 1595.82 280.225C1585.24 285.516 1573.38 288.161 1560.23 288.161ZM1559.72 178.081C1551.53 178.081 1544.53 180.556 1538.73 185.505C1532.93 190.455 1529.09 196.94 1527.21 204.961H1593C1591.12 197.623 1587.2 191.308 1581.23 186.017C1575.42 180.727 1568.26 178.081 1559.72 178.081Z" fill="url(#paint2_linear_117_105)"/>
<defs>
<linearGradient id="paint0_linear_117_105" x1="-78.75" y1="-54.1667" x2="421.25" y2="445.833" gradientUnits="userSpaceOnUse">
<stop stop-color="white"/>
<stop offset="0.5" stop-color="#BCF0FF"/>
<stop offset="1" stop-color="#00C8FF"/>
</linearGradient>
<linearGradient id="paint1_linear_117_105" x1="25.25" y1="111.833" x2="318.25" y2="279.333" gradientUnits="userSpaceOnUse">
<stop stop-color="white"/>
<stop offset="0.495192" stop-color="#BCF0FF"/>
<stop offset="1" stop-color="#00C8FF"/>
</linearGradient>
<linearGradient id="paint2_linear_117_105" x1="413.25" y1="101.333" x2="1661.75" y2="298.334" gradientUnits="userSpaceOnUse">
<stop stop-color="white"/>
<stop offset="0.5" stop-color="#BCF0FF"/>
<stop offset="1" stop-color="#00C8FF"/>
</linearGradient>
</defs>
</svg>
